<svg viewBox="0 0 20 20" xmlns="http://www.w3.org/2000/svg" xmlns:xlink="http://www.w3.org/1999/xlink" width="20" height="20" fill="none">
	<rect id="24px/文件类型(树结构)/APP" width="20" height="20" x="0" y="0" fill="rgb(0,0,0)" fill-opacity="0" />
	<path id="矢量 265" d="M7.00032 1.66675L12.9997 1.66675C14.8665 1.66675 15.8 1.66675 16.5137 2.03001C17.1403 2.34963 17.6505 2.85958 17.9704 3.48682C18.3333 4.19981 18.3333 5.13324 18.3333 7.0001L18.3333 13.0001C18.3333 14.8669 18.3333 15.8004 17.9704 16.5133C17.6505 17.1406 17.1403 17.6505 16.5137 17.9701C15.8 18.3334 14.8665 18.3334 12.9997 18.3334L7.00032 18.3334C5.13345 18.3334 4.20002 18.3334 3.48632 17.9701C2.85969 17.6505 2.34944 17.1406 2.02961 16.5133C1.66666 15.8004 1.66666 14.8669 1.66666 13.0001L1.66666 7.0001C1.66666 5.13324 1.66666 4.19981 2.02961 3.48682C2.34944 2.85958 2.85969 2.34963 3.48632 2.03001C4.20002 1.66675 5.13345 1.66675 7.00032 1.66675Z" fill="rgb(251.585,153.21,57.1784)" fill-rule="evenodd" />
	<path id="APP" d="M4.78134 6.48524L3.18642 13.6293C3.10596 13.9897 3.38015 14.3319 3.74943 14.3319C4.02521 14.3319 4.26242 14.1367 4.31551 13.866L4.57564 12.54L6.20173 12.54L6.46185 13.866C6.51494 14.1367 6.75215 14.3319 7.02793 14.3319C7.39722 14.3319 7.67141 13.9897 7.59094 13.6293L5.99602 6.48524C5.93252 6.2008 5.68012 5.99854 5.38868 5.99854C5.09724 5.99854 4.84484 6.2008 4.78134 6.48524ZM8.33385 13.736L8.33385 6.99854C8.33385 6.44625 8.78156 5.99854 9.33385 5.99854L10.1228 5.99854C10.4505 5.99854 10.7392 6.0414 10.9887 6.12714C11.2383 6.21287 11.465 6.36433 11.6689 6.58153C11.8708 6.80062 12.0109 7.05687 12.089 7.35027Q12.2062 7.78752 12.2062 8.53626Q12.2062 9.09924 12.1404 9.48505C12.0985 9.74225 12.008 9.98421 11.8689 10.2109C11.7051 10.4853 11.486 10.6987 11.2116 10.8511C10.9392 11.0016 10.5801 11.0768 10.1343 11.0768L9.52555 11.0768L9.52555 13.736C9.52555 14.0651 9.25878 14.3319 8.9297 14.3319C8.60062 14.3319 8.33385 14.0651 8.33385 13.736ZM13.098 6.99854L13.098 13.736C13.098 14.0651 13.3648 14.3319 13.6938 14.3319C14.0229 14.3319 14.2897 14.0651 14.2897 13.736L14.2897 11.0768L14.8984 11.0768Q15.5671 11.0768 15.9758 10.8511C16.2501 10.6987 16.4692 10.4853 16.6331 10.2109C16.7722 9.98421 16.8627 9.74225 16.9046 9.48505C16.9484 9.22784 16.9703 8.91158 16.9703 8.53626C16.9703 8.0371 16.9313 7.64177 16.8531 7.35027C16.775 7.05687 16.635 6.80062 16.433 6.58153C16.2292 6.36433 16.0025 6.21287 15.7529 6.12714C15.5033 6.0414 15.2147 5.99854 14.887 5.99854L14.098 5.99854C13.5457 5.99854 13.098 6.44625 13.098 6.99854ZM9.52555 7.12165L9.52555 9.95372L10.1 9.95372Q10.4629 9.95372 10.6601 9.84799C10.7935 9.77749 10.8916 9.68033 10.9544 9.55649C11.0173 9.43837 11.0545 9.29357 11.0659 9.12211Q11.083 8.8649 11.083 8.55055Q11.083 8.25619 11.0716 7.99328C11.064 7.818 11.0287 7.66368 10.9659 7.53031C10.903 7.39886 10.8087 7.29788 10.683 7.22739Q10.4972 7.12165 10.1457 7.12165L9.52555 7.12165ZM14.2897 9.95372L14.2897 7.12165L14.9098 7.12165C15.1442 7.12165 15.3233 7.1569 15.4471 7.22739C15.5728 7.29788 15.6672 7.39886 15.73 7.53031C15.7929 7.66368 15.8281 7.818 15.8358 7.99328C15.8434 8.16856 15.8472 8.35431 15.8472 8.55055Q15.8472 8.8649 15.8301 9.12211C15.8186 9.29357 15.7815 9.43837 15.7186 9.55649C15.6557 9.68033 15.5576 9.77749 15.4242 9.84799C15.2928 9.91848 15.1061 9.95372 14.8641 9.95372L14.2897 9.95372ZM5.39583 8.39623L5.97882 11.4169L4.78712 11.4169L5.37011 8.39623L5.39583 8.39623Z" fill="rgb(255,255,255)" fill-rule="evenodd" />
</svg>
