<svg width="20.000000" height="20.000000" viewBox="0 0 20 20" fill="none" xmlns="http://www.w3.org/2000/svg" xmlns:xlink="http://www.w3.org/1999/xlink">
	<desc>
			Created with Pixso.
	</desc>
	<defs>
		<clipPath id="clip7051_154903">
			<rect id="24px/文件类型(树结构)/arkts" width="20.000000" height="20.000000" fill="white" fill-opacity="0"/>
		</clipPath>
	</defs>
	<g clip-path="url(#clip7051_154903)">
		<path id="矢量 327" d="M7 1.66L12.99 1.66C14.86 1.66 15.79 1.66 16.51 2.03C17.14 2.35 17.65 2.85 17.97 3.48C18.33 4.2 18.33 5.13 18.33 7L18.33 13C18.33 14.86 18.33 15.8 17.97 16.51C17.65 17.14 17.14 17.65 16.51 17.97C15.79 18.33 14.86 18.33 12.99 18.33L7 18.33C5.13 18.33 4.2 18.33 3.48 17.97C2.85 17.65 2.34 17.14 2.02 16.51C1.66 15.8 1.66 14.86 1.66 13L1.66 7C1.66 5.13 1.66 4.2 2.02 3.48C2.34 2.85 2.85 2.35 3.48 2.03C4.2 1.66 5.13 1.66 7 1.66Z" fill="#0A59F7" fill-opacity="1.000000" fill-rule="evenodd"/>
		<path id="矢量 276" d="M9.03 4.86C9.11 4.66 9.28 4.53 9.47 4.48C9.78 4.4 10.1 4.56 10.23 4.86L11.57 8.16C13.2 7.28 14.65 7.31 14.87 7.49C15.61 8.34 12.84 9.5 12.84 9.5C12.84 9.5 14.44 8.28 14.12 8.23C13.88 8.2 12.98 8.43 11.97 9.13L14.22 14.65C14.35 14.98 14.2 15.35 13.87 15.48C13.54 15.61 13.17 15.46 13.03 15.13L10.94 9.99C9.1 11.76 6.13 15.31 6.13 15.31C5.92 15.55 5.57 15.6 5.31 15.44C5.04 15.28 4.92 14.95 5.04 14.65L9.03 4.86ZM7.66 11.61C8.61 10.59 9.65 9.53 10.48 8.87L9.63 6.78L7.66 11.61Z" fill="#FFFFFF" fill-opacity="1.000000" fill-rule="evenodd"/>
	</g>
</svg>
