<svg width="20.000000" height="20.000000" viewBox="0 0 20 20" fill="none" xmlns="http://www.w3.org/2000/svg" xmlns:xlink="http://www.w3.org/1999/xlink">
	<desc>
			Created with Pixso.
	</desc>
	<defs>
		<clipPath id="clip7051_154873">
			<rect id="24px/文件类型(树结构)/bin" width="20.000000" height="20.000000" fill="white" fill-opacity="0"/>
		</clipPath>
	</defs>
	<g clip-path="url(#clip7051_154873)">
		<path id="矢量 350" d="M7 1.66L12.99 1.66C14.86 1.66 15.79 1.66 16.51 2.02C17.14 2.34 17.65 2.85 17.97 3.48C18.33 4.19 18.33 5.13 18.33 7L18.33 13C18.33 14.86 18.33 15.8 17.97 16.51C17.65 17.14 17.14 17.65 16.51 17.96C15.79 18.33 14.86 18.33 12.99 18.33L7 18.33C5.13 18.33 4.2 18.33 3.48 17.96C2.85 17.65 2.34 17.14 2.02 16.51C1.66 15.8 1.66 14.86 1.66 13L1.66 7C1.66 5.13 1.66 4.19 2.02 3.48C2.34 2.85 2.85 2.34 3.48 2.02C4.2 1.66 5.13 1.66 7 1.66Z" fill="#9566FF" fill-opacity="1.000000" fill-rule="evenodd"/>
		<path id="矢量 357" d="M3.57 14.4L3.57 5.59C3.57 5.13 3.94 4.76 4.4 4.76L5.7 4.76C6.17 4.76 6.58 4.83 6.91 4.98C7.24 5.12 7.51 5.31 7.72 5.55C7.79 5.63 7.86 5.72 7.92 5.82C8.03 5.99 8.11 6.17 8.17 6.37C8.18 6.41 8.19 6.44 8.2 6.48C8.27 6.76 8.31 7.05 8.31 7.35L8.31 7.74C8.31 8.03 8.29 8.26 8.24 8.46C8.2 8.65 8.14 8.81 8.06 8.95C7.89 9.21 7.65 9.44 7.31 9.63L7.14 9.73L7.32 9.82C7.55 9.93 7.74 10.07 7.89 10.25C7.95 10.33 8.01 10.42 8.06 10.52C8.23 10.84 8.31 11.27 8.31 11.83L8.31 12.42C8.31 13.34 8.09 14.03 7.65 14.51C7.22 14.99 6.52 15.23 5.55 15.23L4.4 15.23C3.94 15.23 3.57 14.86 3.57 14.4ZM9.17 14.57L9.17 5.42C9.17 5.06 9.47 4.76 9.83 4.76C10.2 4.76 10.49 5.06 10.49 5.42L10.49 14.57C10.49 14.93 10.2 15.23 9.83 15.23C9.47 15.23 9.17 14.93 9.17 14.57ZM11.29 14.57L11.29 5.53C11.29 5.1 11.63 4.76 12.06 4.76C12.38 4.76 12.66 4.95 12.78 5.25L15.1 11.19L15.1 11.19L15.1 5.42C15.1 5.06 15.4 4.76 15.76 4.76C16.13 4.76 16.42 5.06 16.42 5.42L16.42 14.48C16.42 14.89 16.08 15.23 15.67 15.23C15.36 15.23 15.08 15.04 14.97 14.76L12.61 8.81L12.61 8.81L12.61 14.57C12.61 14.93 12.32 15.23 11.95 15.23C11.59 15.23 11.29 14.93 11.29 14.57ZM4.89 9.14L4.89 5.99L5.62 5.99C6.17 5.99 6.54 6.12 6.76 6.39C6.97 6.65 7.08 7.03 7.08 7.53C7.08 8.05 6.95 8.49 6.76 8.76C6.56 9.01 6.2 9.14 5.68 9.14L4.89 9.14ZM4.89 13.91L4.89 10.28L5.67 10.28C5.96 10.28 6.2 10.31 6.38 10.38C6.51 10.43 6.62 10.5 6.71 10.59C6.76 10.63 6.8 10.68 6.84 10.73C6.93 10.89 7 11.07 7.03 11.28C7.06 11.49 7.08 11.73 7.08 12.01C7.08 12.27 7.07 12.51 7.05 12.73C7.03 12.97 6.97 13.17 6.87 13.35C6.84 13.4 6.81 13.45 6.77 13.49C6.68 13.6 6.57 13.69 6.43 13.76C6.24 13.86 5.98 13.91 5.65 13.91L4.89 13.91Z" fill="#FFFFFF" fill-opacity="1.000000" fill-rule="evenodd"/>
	</g>
</svg>
