<svg width="20.000000" height="20.000000" viewBox="0 0 20 20" fill="none" xmlns="http://www.w3.org/2000/svg" xmlns:xlink="http://www.w3.org/1999/xlink">
	<desc>
			Created with Pixso.
	</desc>
	<defs/>
	<rect id="24px/文件类型(树结构)/c" width="20.000000" height="20.000000" fill="#FFFFFF" fill-opacity="0"/>
	<path id="矢量 338" d="M7 1.66L12.99 1.66C14.86 1.66 15.79 1.66 16.51 2.02C17.14 2.34 17.65 2.85 17.97 3.48C18.33 4.19 18.33 5.13 18.33 7L18.33 13C18.33 14.86 18.33 15.8 17.97 16.51C17.65 17.14 17.14 17.65 16.51 17.96C15.79 18.33 14.86 18.33 12.99 18.33L7 18.33C5.13 18.33 4.2 18.33 3.48 17.96C2.85 17.65 2.34 17.14 2.02 16.51C1.66 15.8 1.66 14.86 1.66 13L1.66 7C1.66 5.13 1.66 4.19 2.02 3.48C2.34 2.85 2.85 2.34 3.48 2.02C4.2 1.66 5.13 1.66 7 1.66Z" fill="#5265E1" fill-opacity="1.000000" fill-rule="evenodd"/>
	<path id="椭圆 46 (边框)" d="M11.96 13.04C12.16 12.91 12.35 12.75 12.53 12.57C12.74 12.37 12.74 12.04 12.53 11.84C12.33 11.63 12 11.63 11.79 11.84C11.67 11.97 11.53 12.08 11.38 12.18C11.25 12.26 11.11 12.33 10.97 12.39C10.83 12.45 10.68 12.5 10.54 12.53C10.35 12.58 10.15 12.6 9.95 12.6C9.75 12.6 9.56 12.58 9.37 12.53C9.22 12.5 9.08 12.45 8.94 12.39C8.8 12.33 8.66 12.26 8.53 12.18C8.38 12.08 8.24 11.97 8.11 11.84C7.98 11.71 7.87 11.57 7.77 11.42C7.69 11.29 7.61 11.15 7.55 11.01C7.49 10.87 7.45 10.72 7.41 10.58C7.37 10.39 7.35 10.19 7.35 10C7.35 9.8 7.37 9.6 7.41 9.41C7.45 9.27 7.49 9.12 7.55 8.98C7.61 8.84 7.69 8.7 7.77 8.57C7.87 8.42 7.98 8.28 8.11 8.15C8.24 8.02 8.38 7.91 8.53 7.81C8.66 7.73 8.8 7.66 8.94 7.6C9.08 7.54 9.22 7.49 9.37 7.46C9.56 7.41 9.75 7.39 9.95 7.39C10.15 7.39 10.35 7.41 10.54 7.46C10.68 7.49 10.83 7.54 10.97 7.6C11.11 7.66 11.25 7.73 11.38 7.81C11.53 7.91 11.67 8.02 11.79 8.15C12 8.36 12.33 8.36 12.53 8.15C12.74 7.95 12.74 7.62 12.53 7.42C12.35 7.24 12.16 7.08 11.96 6.95C11.77 6.83 11.58 6.72 11.37 6.64C11.17 6.55 10.96 6.48 10.74 6.43C10.49 6.38 10.22 6.35 9.95 6.35C9.68 6.35 9.42 6.38 9.16 6.43C8.95 6.48 8.74 6.55 8.53 6.64C8.33 6.72 8.13 6.83 7.95 6.95C7.74 7.08 7.55 7.24 7.38 7.42C7.2 7.59 7.04 7.78 6.91 7.99C6.79 8.17 6.68 8.37 6.59 8.58C6.51 8.78 6.44 8.99 6.39 9.2C6.34 9.46 6.31 9.72 6.31 10C6.31 10.26 6.34 10.53 6.39 10.79C6.44 11 6.51 11.21 6.59 11.41C6.68 11.62 6.79 11.82 6.91 12C7.04 12.21 7.2 12.4 7.38 12.57C7.55 12.75 7.74 12.91 7.95 13.04C8.13 13.16 8.33 13.27 8.53 13.35C8.74 13.44 8.95 13.51 9.16 13.56C9.42 13.61 9.68 13.64 9.95 13.64C10.22 13.64 10.49 13.61 10.74 13.56C10.96 13.51 11.17 13.44 11.37 13.35C11.58 13.27 11.77 13.16 11.96 13.04Z" fill="#FFFFFF" fill-opacity="1.000000" fill-rule="evenodd"/>
	<path id="星形 1 (边框)" d="M8.9 3.36L4.79 5.73C4.63 5.83 4.47 5.94 4.34 6.08C4.21 6.21 4.09 6.36 3.99 6.53C3.9 6.7 3.82 6.87 3.77 7.06C3.73 7.24 3.7 7.43 3.7 7.62L3.7 12.37C3.7 12.56 3.73 12.75 3.77 12.93C3.82 13.11 3.9 13.29 3.99 13.46C4.09 13.63 4.21 13.78 4.34 13.91C4.47 14.05 4.63 14.16 4.79 14.26L8.9 16.63C9.07 16.73 9.25 16.8 9.43 16.85C9.61 16.9 9.8 16.92 10 16.92C10.19 16.92 10.38 16.9 10.56 16.85C10.74 16.8 10.92 16.73 11.09 16.63L15.2 14.26C15.36 14.16 15.52 14.05 15.65 13.91C15.78 13.78 15.9 13.63 16 13.46C16.09 13.29 16.17 13.11 16.22 12.93C16.27 12.75 16.29 12.56 16.29 12.37L16.29 7.62C16.29 7.43 16.27 7.24 16.22 7.06C16.17 6.87 16.09 6.7 16 6.53C15.9 6.36 15.78 6.21 15.65 6.08C15.52 5.94 15.36 5.83 15.2 5.73L11.09 3.36C10.92 3.26 10.74 3.19 10.56 3.14C10.38 3.09 10.19 3.07 10 3.07C9.8 3.07 9.61 3.09 9.43 3.14C9.25 3.19 9.07 3.26 8.9 3.36ZM5.08 6.81C5.15 6.74 5.23 6.68 5.32 6.63L9.42 4.26C9.51 4.21 9.6 4.17 9.7 4.15C9.79 4.12 9.89 4.11 10 4.11C10.1 4.11 10.2 4.12 10.29 4.15C10.39 4.17 10.48 4.21 10.57 4.26L14.67 6.63C14.76 6.68 14.84 6.74 14.91 6.81C14.98 6.88 15.04 6.96 15.09 7.05C15.15 7.14 15.18 7.23 15.21 7.33C15.23 7.42 15.25 7.52 15.25 7.62L15.25 12.37C15.25 12.47 15.23 12.57 15.21 12.66C15.18 12.76 15.15 12.85 15.09 12.94C15.04 13.03 14.98 13.11 14.91 13.18C14.84 13.25 14.76 13.31 14.67 13.36L10.57 15.73C10.48 15.78 10.39 15.82 10.29 15.84C10.2 15.87 10.1 15.88 10 15.88C9.89 15.88 9.79 15.87 9.7 15.84C9.6 15.82 9.51 15.78 9.42 15.73L5.32 13.36C5.23 13.31 5.15 13.25 5.08 13.18C5.01 13.11 4.95 13.03 4.9 12.94C4.84 12.85 4.81 12.76 4.78 12.66C4.76 12.57 4.74 12.47 4.74 12.37L4.74 7.62C4.74 7.52 4.76 7.42 4.78 7.33C4.81 7.23 4.84 7.14 4.9 7.05C4.95 6.96 5.01 6.88 5.08 6.81Z" fill="#FFFFFF" fill-opacity="1.000000" fill-rule="evenodd"/>
</svg>
