<svg width="20.000000" height="20.000000" viewBox="0 0 20 20" fill="none" xmlns="http://www.w3.org/2000/svg" xmlns:xlink="http://www.w3.org/1999/xlink">
	<desc>
			Created with Pixso.
	</desc>
	<defs>
		<clipPath id="clip7051_154885">
			<rect id="24px/文件类型(树结构)/cj" width="20.000000" height="20.000000" fill="white" fill-opacity="0"/>
		</clipPath>
	</defs>
	<g clip-path="url(#clip7051_154885)">
		<path id="矢量 344" d="M7 1.66L12.99 1.66C14.86 1.66 15.79 1.66 16.51 2.02C17.14 2.34 17.65 2.85 17.97 3.48C18.33 4.19 18.33 5.13 18.33 7L18.33 13C18.33 14.86 18.33 15.8 17.97 16.51C17.65 17.14 17.14 17.65 16.51 17.96C15.79 18.33 14.86 18.33 12.99 18.33L7 18.33C5.13 18.33 4.2 18.33 3.48 17.96C2.85 17.65 2.34 17.14 2.02 16.51C1.66 15.8 1.66 14.86 1.66 13L1.66 7C1.66 5.13 1.66 4.19 2.02 3.48C2.34 2.85 2.85 2.34 3.48 2.02C4.2 1.66 5.13 1.66 7 1.66Z" fill="#226BFF" fill-opacity="1.000000" fill-rule="evenodd"/>
		<path id="矢量 279" d="M9.89 13.55C9.93 13.39 9.95 13.22 9.96 13.06C9.98 12.69 9.67 12.4 9.31 12.4C8.94 12.4 8.68 12.69 8.63 13.06C8.62 13.17 8.59 13.28 8.54 13.38C8.48 13.54 8.39 13.66 8.29 13.75C8.2 13.83 8.04 13.9 7.93 13.94C7.81 13.98 7.69 14 7.58 14C7.27 14 7.03 13.92 6.87 13.76C6.83 13.73 6.8 13.68 6.77 13.64C6.62 13.41 6.55 13.13 6.55 12.8L6.55 7.34C6.55 6.96 6.61 6.65 6.75 6.4C6.78 6.34 6.82 6.28 6.86 6.24C7.02 6.07 7.27 5.99 7.6 5.99C7.78 5.99 7.94 6.03 8.08 6.11C8.19 6.17 8.28 6.25 8.37 6.36C8.43 6.44 8.48 6.53 8.52 6.62C8.57 6.72 8.6 6.83 8.62 6.95C8.67 7.31 8.94 7.61 9.31 7.61C9.67 7.61 9.98 7.31 9.95 6.95C9.93 6.67 9.89 6.39 9.78 6.13C9.67 5.84 9.48 5.55 9.29 5.34C9.15 5.19 8.99 5.07 8.82 4.97C8.47 4.77 8.07 4.67 7.61 4.67C7.25 4.67 6.93 4.73 6.64 4.85C6.41 4.94 6.21 5.06 6.03 5.21C5.98 5.25 5.93 5.3 5.88 5.34C5.83 5.4 5.78 5.45 5.74 5.51C5.6 5.68 5.48 5.87 5.4 6.09C5.28 6.38 5.22 6.69 5.22 7.03L5.22 12.9C5.22 13.38 5.3 13.77 5.44 14.06C5.59 14.37 5.78 14.61 6.01 14.8C6.15 14.92 6.3 15.01 6.45 15.09C6.56 15.13 6.67 15.17 6.78 15.2C7.07 15.28 7.36 15.32 7.64 15.32C7.89 15.32 8.12 15.28 8.35 15.21C8.42 15.19 8.48 15.16 8.55 15.13C8.74 15.04 8.92 14.93 9.08 14.8C9.15 14.74 9.22 14.67 9.29 14.6C9.38 14.51 9.46 14.41 9.53 14.31C9.63 14.17 9.72 14.01 9.79 13.85C9.83 13.75 9.86 13.65 9.89 13.55ZM14.76 12.81L14.76 5.42C14.76 5.06 14.47 4.76 14.11 4.76C13.74 4.76 13.45 5.06 13.45 5.42L13.45 12.61C13.45 12.89 13.41 13.12 13.33 13.3C13.25 13.48 13.16 13.62 13.03 13.72C12.91 13.83 12.78 13.9 12.65 13.94C12.52 13.98 12.41 14 12.31 14C12.19 14 12.07 13.98 11.95 13.94C11.64 13.83 11.27 13.79 11.01 14C10.69 14.25 10.67 14.73 11.01 14.94C11.4 15.17 11.83 15.32 12.26 15.32C12.67 15.32 13.02 15.26 13.32 15.12C13.57 15.01 13.78 14.87 13.97 14.7C14.02 14.66 14.06 14.62 14.1 14.58C14.26 14.41 14.38 14.24 14.48 14.05C14.67 13.69 14.76 13.28 14.76 12.81Z" fill="#FFFFFF" fill-opacity="1.000000" fill-rule="evenodd"/>
	</g>
</svg>
