<svg width="20.000000" height="20.000000" viewBox="0 0 20 20" fill="none" xmlns="http://www.w3.org/2000/svg" xmlns:xlink="http://www.w3.org/1999/xlink">
	<desc>
			Created with Pixso.
	</desc>
	<defs/>
	<rect id="24px/文件类型(树结构)/c++" width="20.000000" height="20.000000" fill="#FFFFFF" fill-opacity="0"/>
	<path id="矢量 337" d="M7 1.66L12.99 1.66C14.86 1.66 15.79 1.66 16.51 2.02C17.14 2.34 17.65 2.85 17.97 3.48C18.33 4.19 18.33 5.13 18.33 7L18.33 13C18.33 14.86 18.33 15.8 17.97 16.51C17.65 17.14 17.14 17.65 16.51 17.96C15.79 18.33 14.86 18.33 12.99 18.33L7 18.33C5.13 18.33 4.2 18.33 3.48 17.96C2.85 17.65 2.34 17.14 2.02 16.51C1.66 15.8 1.66 14.86 1.66 13L1.66 7C1.66 5.13 1.66 4.19 2.02 3.48C2.34 2.85 2.85 2.34 3.48 2.02C4.2 1.66 5.13 1.66 7 1.66Z" fill="#28B4B4" fill-opacity="1.000000" fill-rule="evenodd"/>
	<path id="椭圆 46 (边框)" d="M11.78 14.61C12.09 14.4 12.38 14.17 12.65 13.9C12.85 13.69 12.85 13.37 12.65 13.16C12.44 12.95 12.12 12.95 11.91 13.16C11.69 13.38 11.45 13.58 11.19 13.74C10.97 13.89 10.74 14.01 10.49 14.12C10.24 14.22 9.99 14.3 9.74 14.36C9.42 14.43 9.08 14.47 8.74 14.47C8.4 14.47 8.07 14.43 7.75 14.36C7.49 14.3 7.24 14.22 7 14.12C6.75 14.01 6.52 13.89 6.29 13.74C6.04 13.58 5.8 13.38 5.58 13.16C5.36 12.94 5.16 12.7 4.99 12.44C4.85 12.22 4.72 11.99 4.62 11.74C4.51 11.49 4.43 11.24 4.38 10.99C4.3 10.67 4.27 10.33 4.27 9.99C4.27 9.65 4.3 9.32 4.38 9C4.43 8.74 4.51 8.49 4.62 8.25C4.72 8 4.85 7.77 4.99 7.54C5.16 7.29 5.36 7.05 5.58 6.83C5.8 6.61 6.04 6.41 6.29 6.24C6.52 6.1 6.75 5.97 7 5.87C7.24 5.76 7.49 5.68 7.75 5.63C8.07 5.55 8.4 5.52 8.74 5.52C9.08 5.52 9.42 5.55 9.74 5.63C9.99 5.68 10.24 5.76 10.49 5.87C10.74 5.97 10.97 6.1 11.19 6.24C11.45 6.41 11.69 6.61 11.91 6.83C12.12 7.03 12.44 7.03 12.65 6.83C12.85 6.62 12.85 6.3 12.65 6.09C12.38 5.82 12.09 5.59 11.78 5.38C11.5 5.2 11.2 5.04 10.89 4.91C10.58 4.78 10.27 4.68 9.95 4.6C9.56 4.52 9.15 4.47 8.74 4.47C8.33 4.47 7.93 4.52 7.54 4.6C7.22 4.68 6.9 4.78 6.59 4.91C6.28 5.04 5.99 5.2 5.71 5.38C5.4 5.59 5.11 5.82 4.84 6.09C4.57 6.36 4.34 6.65 4.13 6.96C3.95 7.24 3.79 7.53 3.66 7.85C3.53 8.15 3.43 8.47 3.35 8.79C3.27 9.18 3.22 9.58 3.22 9.99C3.22 10.4 3.27 10.81 3.35 11.2C3.43 11.52 3.53 11.83 3.66 12.14C3.79 12.45 3.95 12.75 4.13 13.03C4.34 13.34 4.57 13.63 4.84 13.9C5.11 14.17 5.4 14.4 5.71 14.61C5.99 14.79 6.28 14.95 6.59 15.08C6.9 15.21 7.22 15.31 7.54 15.38C7.93 15.47 8.33 15.51 8.74 15.51C9.15 15.51 9.56 15.47 9.95 15.38C10.27 15.31 10.58 15.21 10.89 15.08C11.2 14.95 11.5 14.79 11.78 14.61Z" fill="#FFFFFF" fill-opacity="1.000000" fill-rule="evenodd"/>
	<path id="矢量 360" d="M10.2 7.7C9.92 7.7 9.68 7.94 9.68 8.22L9.68 9.47L8.43 9.47C8.14 9.47 7.91 9.71 7.91 10C7.91 10.28 8.14 10.52 8.43 10.52L9.68 10.52L9.68 11.77C9.68 12.05 9.92 12.29 10.2 12.29C10.49 12.29 10.72 12.05 10.72 11.77L10.72 10.52L11.97 10.52C12.26 10.52 12.49 10.28 12.49 10C12.49 9.71 12.26 9.47 11.97 9.47L10.72 9.47L10.72 8.22C10.72 7.94 10.49 7.7 10.2 7.7ZM14.68 8.22C14.68 7.94 14.92 7.7 15.2 7.7C15.49 7.7 15.72 7.94 15.72 8.22L15.72 9.47L16.97 9.47C17.26 9.47 17.49 9.71 17.49 10C17.49 10.28 17.26 10.52 16.97 10.52L15.72 10.52L15.72 11.77C15.72 12.05 15.49 12.29 15.2 12.29C14.92 12.29 14.68 12.05 14.68 11.77L14.68 10.52L13.43 10.52C13.14 10.52 12.91 10.28 12.91 10C12.91 9.71 13.14 9.47 13.43 9.47L14.68 9.47L14.68 8.22Z" fill="#FFFFFF" fill-opacity="1.000000" fill-rule="evenodd"/>
</svg>
