<svg width="20.000000" height="20.000000" viewBox="0 0 20 20" fill="none" xmlns="http://www.w3.org/2000/svg" xmlns:xlink="http://www.w3.org/1999/xlink">
	<desc>
			Created with Pixso.
	</desc>
	<defs>
		<clipPath id="clip7051_154881">
			<rect id="24px/文件类型(树结构)/css" width="20.000000" height="20.000000" fill="white" fill-opacity="0"/>
		</clipPath>
	</defs>
	<g clip-path="url(#clip7051_154881)">
		<path id="矢量 332" d="M7 1.66L12.99 1.66C14.86 1.66 15.79 1.66 16.51 2.02C17.14 2.34 17.65 2.85 17.97 3.48C18.33 4.19 18.33 5.13 18.33 7L18.33 13C18.33 14.86 18.33 15.8 17.97 16.51C17.65 17.14 17.14 17.65 16.51 17.96C15.79 18.33 14.86 18.33 12.99 18.33L7 18.33C5.13 18.33 4.2 18.33 3.48 17.96C2.85 17.65 2.34 17.14 2.02 16.51C1.66 15.8 1.66 14.86 1.66 13L1.66 7C1.66 5.13 1.66 4.19 2.02 3.48C2.34 2.85 2.85 2.34 3.48 2.02C4.2 1.66 5.13 1.66 7 1.66Z" fill="#226BFF" fill-opacity="1.000000" fill-rule="evenodd"/>
		<path id="矢量 293" d="M5.82 5.71C5.45 5.71 5.13 5.43 5.1 5.05C5.06 4.63 5.4 4.27 5.82 4.27L13.79 4.27C14.37 4.27 14.83 4.77 14.78 5.36L14 14C13.96 14.34 13.76 14.64 13.45 14.8L10.4 16.32C10.12 16.46 9.79 16.46 9.51 16.32L6.46 14.8C6.15 14.64 5.95 14.34 5.91 14L5.81 12.91C5.78 12.49 6.11 12.12 6.53 12.12C6.91 12.12 7.22 12.41 7.25 12.78L7.33 13.62L9.95 14.93L12.58 13.62L12.88 10.26L7.89 10.26C7.51 10.26 7.2 9.97 7.17 9.6C7.13 9.18 7.46 8.81 7.89 8.81L13.02 8.81L13.3 5.71L5.82 5.71Z" fill="#FFFFFF" fill-opacity="1.000000" fill-rule="evenodd"/>
	</g>
</svg>
