<svg width="20.000000" height="20.000000" viewBox="0 0 20 20" fill="none" xmlns="http://www.w3.org/2000/svg" xmlns:xlink="http://www.w3.org/1999/xlink">
	<desc>
			Created with Pixso.
	</desc>
	<defs>
		<clipPath id="clip7051_154883">
			<rect id="24px/文件类型(树结构)/exe" width="20.000000" height="20.000000" fill="white" fill-opacity="0"/>
		</clipPath>
	</defs>
	<g clip-path="url(#clip7051_154883)">
		<path id="矢量 333" d="M7 1.66L12.99 1.66C14.86 1.66 15.79 1.66 16.51 2.02C17.14 2.34 17.65 2.85 17.97 3.48C18.33 4.19 18.33 5.13 18.33 7L18.33 13C18.33 14.86 18.33 15.8 17.97 16.51C17.65 17.14 17.14 17.65 16.51 17.96C15.79 18.33 14.86 18.33 12.99 18.33L7 18.33C5.13 18.33 4.2 18.33 3.48 17.96C2.85 17.65 2.34 17.14 2.02 16.51C1.66 15.8 1.66 14.86 1.66 13L1.66 7C1.66 5.13 1.66 4.19 2.02 3.48C2.34 2.85 2.85 2.34 3.48 2.02C4.2 1.66 5.13 1.66 7 1.66Z" fill="#3F8BDD" fill-opacity="1.000000" fill-rule="evenodd"/>
		<path id="矢量 120" d="M14.28 3.76C14.39 3.77 14.51 3.79 14.62 3.83C14.74 3.87 14.85 3.91 14.95 3.97C15.06 4.03 15.17 4.11 15.27 4.2C15.37 4.29 15.46 4.39 15.54 4.49C15.61 4.59 15.67 4.69 15.72 4.8C15.77 4.91 15.81 5.02 15.84 5.13C15.87 5.27 15.89 5.41 15.89 5.56L15.89 8.02C15.89 8.15 15.87 8.28 15.84 8.41C15.82 8.51 15.79 8.62 15.74 8.72C15.7 8.83 15.65 8.92 15.59 9.02C15.52 9.12 15.44 9.21 15.35 9.3C15.27 9.39 15.17 9.46 15.07 9.53C14.98 9.59 14.88 9.64 14.78 9.69C14.68 9.73 14.57 9.77 14.46 9.79C14.34 9.82 14.21 9.83 14.07 9.83L11.11 9.83C11 9.83 10.9 9.82 10.79 9.8C10.7 9.78 10.62 9.75 10.53 9.71C10.45 9.68 10.37 9.63 10.29 9.58C10.21 9.53 10.13 9.47 10.06 9.4C9.99 9.32 9.93 9.25 9.87 9.17C9.82 9.09 9.78 9.01 9.74 8.92C9.71 8.84 9.68 8.75 9.66 8.66C9.64 8.56 9.63 8.45 9.63 8.35L9.63 5.6C9.63 5.5 9.64 5.4 9.65 5.31C9.67 5.23 9.69 5.14 9.72 5.06C9.76 4.98 9.79 4.91 9.84 4.83C9.88 4.76 9.94 4.68 10 4.62C10.06 4.55 10.12 4.48 10.2 4.43C10.26 4.38 10.33 4.33 10.41 4.29C10.48 4.25 10.56 4.21 10.64 4.19C10.73 4.16 10.83 4.14 10.92 4.12L13.85 3.76C13.99 3.74 14.14 3.74 14.28 3.76ZM13.97 4.74L11.05 5.11C10.99 5.11 10.93 5.13 10.88 5.16C10.83 5.19 10.78 5.22 10.74 5.27C10.7 5.32 10.67 5.37 10.65 5.42C10.62 5.48 10.61 5.53 10.61 5.6L10.61 8.35C10.61 8.42 10.63 8.48 10.65 8.54C10.67 8.6 10.71 8.65 10.76 8.7C10.81 8.75 10.86 8.78 10.92 8.81C10.98 8.83 11.04 8.84 11.11 8.84L14.07 8.84C14.14 8.84 14.2 8.83 14.27 8.82C14.31 8.81 14.35 8.79 14.39 8.78C14.44 8.76 14.48 8.74 14.52 8.71C14.57 8.68 14.61 8.64 14.66 8.6C14.7 8.56 14.73 8.51 14.77 8.46C14.79 8.43 14.81 8.38 14.83 8.34C14.85 8.3 14.86 8.25 14.88 8.21C14.89 8.15 14.9 8.08 14.9 8.02L14.9 5.56C14.9 5.48 14.89 5.41 14.87 5.35C14.86 5.3 14.84 5.26 14.82 5.21C14.8 5.17 14.78 5.12 14.75 5.08C14.71 5.03 14.67 4.98 14.62 4.94C14.57 4.9 14.52 4.86 14.46 4.83C14.42 4.81 14.37 4.79 14.32 4.77C14.28 4.76 14.23 4.75 14.18 4.74C14.11 4.73 14.04 4.73 13.97 4.74ZM7.69 4.76C7.57 4.75 7.45 4.76 7.33 4.78L5.36 5.11C5.26 5.12 5.18 5.14 5.09 5.18C5.01 5.2 4.94 5.24 4.86 5.28C4.79 5.32 4.72 5.37 4.66 5.42C4.59 5.48 4.53 5.54 4.47 5.61C4.41 5.68 4.36 5.75 4.31 5.83C4.27 5.9 4.24 5.97 4.21 6.05C4.18 6.14 4.15 6.23 4.14 6.33C4.12 6.4 4.12 6.48 4.12 6.56L4.11 8.34C4.11 8.45 4.12 8.56 4.14 8.66C4.16 8.75 4.19 8.84 4.22 8.92C4.26 9.01 4.31 9.09 4.36 9.17C4.41 9.25 4.47 9.32 4.54 9.39C4.61 9.47 4.69 9.53 4.77 9.58C4.85 9.63 4.93 9.68 5.01 9.71C5.1 9.75 5.18 9.78 5.27 9.8C5.38 9.82 5.48 9.83 5.59 9.83L7.57 9.83C7.67 9.83 7.78 9.82 7.88 9.8C7.97 9.78 8.06 9.75 8.14 9.71C8.23 9.68 8.31 9.63 8.39 9.58C8.47 9.53 8.54 9.47 8.61 9.4C8.69 9.33 8.75 9.25 8.81 9.16C8.86 9.09 8.9 9.01 8.93 8.93C8.97 8.83 9 8.74 9.02 8.64C9.04 8.55 9.05 8.45 9.05 8.35L9.06 6.24C9.06 6.12 9.04 6 9.02 5.89C8.99 5.79 8.96 5.7 8.92 5.61C8.87 5.51 8.82 5.43 8.76 5.35C8.7 5.26 8.62 5.18 8.54 5.11C8.45 5.04 8.36 4.97 8.26 4.92C8.17 4.88 8.08 4.84 7.99 4.81C7.89 4.79 7.79 4.77 7.69 4.76ZM5.52 6.08L7.5 5.75C7.54 5.74 7.59 5.74 7.64 5.75C7.66 5.75 7.69 5.76 7.71 5.76C7.74 5.77 7.77 5.78 7.79 5.79C7.83 5.81 7.86 5.83 7.9 5.86C7.93 5.89 7.95 5.92 7.97 5.95C7.99 5.97 8.01 6 8.02 6.03C8.03 6.05 8.04 6.08 8.05 6.1C8.06 6.15 8.07 6.19 8.07 6.24L8.06 8.35C8.06 8.42 8.05 8.48 8.02 8.54C8 8.6 7.96 8.65 7.92 8.7C7.87 8.75 7.82 8.78 7.76 8.81C7.7 8.83 7.64 8.84 7.57 8.84L5.59 8.84C5.52 8.84 5.46 8.83 5.4 8.81C5.34 8.78 5.29 8.74 5.24 8.7C5.2 8.65 5.16 8.6 5.14 8.54C5.11 8.48 5.1 8.41 5.1 8.34L5.11 6.57C5.11 6.5 5.12 6.45 5.14 6.39C5.16 6.34 5.18 6.29 5.22 6.25C5.26 6.2 5.31 6.17 5.35 6.14C5.4 6.11 5.46 6.09 5.52 6.08ZM7.56 10.16C7.67 10.16 7.78 10.17 7.88 10.19C7.97 10.21 8.06 10.24 8.14 10.28C8.23 10.31 8.31 10.36 8.38 10.41C8.46 10.46 8.54 10.52 8.61 10.59C8.68 10.66 8.75 10.74 8.8 10.82C8.85 10.9 8.89 10.98 8.93 11.06C8.97 11.15 8.99 11.24 9.01 11.33C9.04 11.43 9.05 11.53 9.05 11.64L9.05 13.76C9.05 13.88 9.03 14 9 14.11C8.98 14.21 8.95 14.3 8.91 14.39C8.86 14.48 8.81 14.57 8.75 14.65C8.68 14.74 8.61 14.82 8.52 14.89C8.44 14.96 8.35 15.02 8.25 15.07C8.16 15.12 8.07 15.16 7.97 15.18C7.88 15.21 7.78 15.23 7.68 15.24C7.56 15.25 7.44 15.24 7.32 15.22L5.35 14.89C5.25 14.87 5.16 14.85 5.08 14.82C5 14.79 4.92 14.76 4.85 14.71C4.78 14.67 4.71 14.62 4.65 14.57C4.58 14.52 4.52 14.46 4.46 14.39C4.4 14.32 4.35 14.25 4.3 14.17C4.26 14.1 4.23 14.02 4.2 13.95C4.17 13.87 4.15 13.79 4.13 13.71C4.11 13.62 4.11 13.52 4.11 13.43L4.1 11.64C4.1 11.53 4.12 11.43 4.14 11.32C4.16 11.23 4.19 11.15 4.22 11.07C4.26 10.98 4.3 10.9 4.35 10.82C4.41 10.74 4.47 10.67 4.54 10.59C4.61 10.52 4.69 10.46 4.77 10.41C4.84 10.36 4.92 10.31 5.01 10.28C5.1 10.24 5.18 10.21 5.27 10.19C5.37 10.17 5.48 10.16 5.59 10.16L7.56 10.16ZM14.46 10.2C14.34 10.17 14.21 10.16 14.07 10.16L11.11 10.16C11 10.16 10.9 10.17 10.79 10.19C10.7 10.21 10.62 10.24 10.53 10.28C10.45 10.31 10.37 10.36 10.29 10.41C10.21 10.46 10.13 10.52 10.06 10.59C9.99 10.67 9.93 10.74 9.87 10.82C9.82 10.9 9.78 10.98 9.74 11.07C9.71 11.15 9.68 11.24 9.66 11.33C9.64 11.43 9.63 11.54 9.63 11.64L9.63 14.39C9.63 14.49 9.64 14.59 9.65 14.68C9.67 14.76 9.69 14.85 9.72 14.93C9.76 15.01 9.79 15.08 9.84 15.16C9.88 15.23 9.94 15.31 10 15.37C10.06 15.44 10.12 15.51 10.2 15.56C10.26 15.61 10.33 15.66 10.41 15.7C10.48 15.74 10.56 15.77 10.64 15.8C10.73 15.83 10.83 15.85 10.92 15.87L13.85 16.23C13.99 16.25 14.14 16.25 14.28 16.23C14.39 16.22 14.51 16.2 14.62 16.16C14.74 16.12 14.85 16.08 14.95 16.02C15.06 15.96 15.17 15.88 15.27 15.79C15.37 15.7 15.46 15.6 15.54 15.5C15.61 15.4 15.67 15.3 15.72 15.19C15.77 15.08 15.81 14.97 15.84 14.86C15.87 14.72 15.89 14.58 15.89 14.43L15.89 11.97C15.89 11.84 15.87 11.71 15.84 11.58C15.82 11.48 15.79 11.37 15.74 11.27C15.7 11.16 15.65 11.06 15.59 10.97C15.52 10.87 15.44 10.78 15.35 10.69C15.27 10.6 15.17 10.53 15.07 10.46C14.98 10.4 14.88 10.35 14.78 10.3C14.68 10.26 14.57 10.22 14.46 10.2ZM7.56 11.15L5.59 11.15C5.52 11.15 5.46 11.16 5.4 11.18C5.34 11.21 5.29 11.24 5.24 11.29C5.19 11.34 5.15 11.39 5.13 11.45C5.11 11.51 5.09 11.57 5.09 11.64L5.09 13.43C5.09 13.49 5.1 13.54 5.12 13.6C5.14 13.65 5.17 13.7 5.21 13.75C5.25 13.79 5.29 13.83 5.34 13.86C5.39 13.89 5.45 13.91 5.51 13.92L7.48 14.25C7.53 14.25 7.58 14.25 7.62 14.25C7.65 14.25 7.67 14.24 7.7 14.23C7.73 14.23 7.76 14.21 7.78 14.2C7.82 14.18 7.85 14.16 7.88 14.13C7.92 14.11 7.94 14.08 7.97 14.05C7.98 14.02 8 14 8.01 13.97C8.02 13.94 8.03 13.92 8.04 13.89C8.05 13.85 8.06 13.8 8.06 13.76L8.06 11.64C8.06 11.57 8.05 11.51 8.02 11.45C8 11.39 7.96 11.34 7.91 11.29C7.87 11.24 7.81 11.21 7.75 11.18C7.7 11.16 7.63 11.15 7.56 11.15ZM11.11 11.15L14.07 11.15C14.14 11.15 14.2 11.16 14.27 11.17C14.31 11.18 14.35 11.19 14.39 11.21C14.44 11.23 14.48 11.25 14.52 11.28C14.57 11.31 14.61 11.35 14.66 11.39C14.7 11.43 14.73 11.48 14.77 11.52C14.79 11.56 14.81 11.61 14.83 11.65C14.85 11.69 14.86 11.74 14.88 11.78C14.89 11.84 14.9 11.91 14.9 11.97L14.9 14.43C14.9 14.51 14.89 14.58 14.87 14.64C14.86 14.69 14.84 14.73 14.82 14.78C14.8 14.82 14.78 14.87 14.75 14.91C14.71 14.96 14.67 15.01 14.62 15.05C14.57 15.09 14.52 15.13 14.46 15.16C14.42 15.18 14.37 15.2 14.32 15.22C14.28 15.23 14.23 15.24 14.18 15.25C14.11 15.26 14.04 15.26 13.97 15.25L11.05 14.88C10.99 14.88 10.93 14.86 10.88 14.83C10.83 14.8 10.78 14.77 10.74 14.72C10.7 14.67 10.67 14.62 10.65 14.57C10.62 14.51 10.61 14.46 10.61 14.39L10.61 11.64C10.61 11.57 10.63 11.51 10.65 11.45C10.67 11.39 10.71 11.34 10.76 11.29C10.81 11.24 10.86 11.21 10.92 11.18C10.98 11.16 11.04 11.15 11.11 11.15Z" fill="#FFFFFF" fill-opacity="1.000000" fill-rule="evenodd"/>
	</g>
</svg>
