<svg width="20.000000" height="20.000000" viewBox="0 0 20 20" fill="none" xmlns="http://www.w3.org/2000/svg" xmlns:xlink="http://www.w3.org/1999/xlink">
	<desc>
			Created with Pixso.
	</desc>
	<defs>
		<clipPath id="clip90_22140">
			<rect id="24px/文件类型(树结构)/gif" width="20.000000" height="20.000000" fill="white" fill-opacity="0"/>
		</clipPath>
	</defs>
	<g clip-path="url(#clip90_22140)">
		<path id="矢量 345" d="M7 1.66L13 1.66C14.86 1.66 15.79 1.66 16.51 2.03C17.14 2.34 17.65 2.85 17.96 3.48C18.33 4.19 18.33 5.13 18.33 7L18.33 13C18.33 14.86 18.33 15.8 17.96 16.51C17.65 17.14 17.14 17.65 16.51 17.96C15.79 18.33 14.86 18.33 13 18.33L7 18.33C5.13 18.33 4.19 18.33 3.48 17.96C2.85 17.65 2.34 17.14 2.02 16.51C1.66 15.8 1.66 14.86 1.66 13L1.66 7C1.66 5.13 1.66 4.19 2.02 3.48C2.34 2.85 2.85 2.34 3.48 2.03C4.19 1.66 5.13 1.66 7 1.66Z" fill="#000000" fill-opacity="0.400000" fill-rule="evenodd"/>
		<path id="矢量 353" d="M3.33 7.32C3.33 6.93 3.39 6.6 3.53 6.3C3.66 6.01 3.84 5.76 4.06 5.57C4.28 5.38 4.52 5.24 4.79 5.14Q5.14 5.02 5.49 5L5.49 5Q5.55 5 5.61 5Q5.67 5 5.72 5L5.72 5Q6.08 5.02 6.43 5.14C6.7 5.24 6.95 5.38 7.17 5.57C7.38 5.76 7.55 6.01 7.69 6.3C7.8 6.56 7.85 6.83 7.87 7.11C7.9 7.49 7.58 7.79 7.21 7.79C6.83 7.79 6.56 7.49 6.51 7.12C6.48 6.91 6.41 6.72 6.25 6.59C6.07 6.43 5.86 6.36 5.61 6.36Q5.4 6.36 5.22 6.43L5.22 6.43Q5.08 6.49 4.96 6.59C4.78 6.74 4.69 6.99 4.69 7.32L4.69 12.33C4.69 12.66 4.78 12.9 4.96 13.05C5.14 13.21 5.36 13.29 5.61 13.29C5.86 13.29 6.07 13.21 6.25 13.05C6.44 12.9 6.53 12.66 6.53 12.33L6.53 10.54L6.05 10.54C5.72 10.54 5.45 10.27 5.45 9.94C5.45 9.61 5.72 9.34 6.05 9.34L7.06 9.34C7.52 9.34 7.89 9.71 7.89 10.17L7.89 12.33C7.89 12.73 7.82 13.07 7.69 13.35C7.55 13.64 7.38 13.87 7.17 14.06C6.95 14.26 6.7 14.4 6.43 14.5Q6.08 14.63 5.72 14.65L5.72 14.65Q5.67 14.65 5.61 14.65Q5.55 14.65 5.49 14.65L5.49 14.65Q5.14 14.63 4.79 14.5C4.52 14.4 4.28 14.26 4.06 14.06C3.84 13.87 3.66 13.64 3.53 13.35C3.39 13.07 3.33 12.73 3.33 12.33L3.33 7.32ZM9.55 13.89L9.55 5.76C9.55 5.38 9.85 5.08 10.23 5.08C10.6 5.08 10.91 5.38 10.91 5.76L10.91 13.89C10.91 14.26 10.6 14.57 10.23 14.57C9.85 14.57 9.55 14.26 9.55 13.89ZM12.64 5.91L12.64 13.89C12.64 14.26 12.95 14.57 13.32 14.57C13.7 14.57 14 14.26 14 13.89L14 10.52L15.71 10.52C16.06 10.52 16.35 10.23 16.35 9.88C16.35 9.52 16.06 9.24 15.71 9.24L14 9.24L14 6.36L16.06 6.36C16.41 6.36 16.7 6.07 16.7 5.72C16.7 5.36 16.41 5.08 16.06 5.08L13.48 5.08C13.02 5.08 12.64 5.45 12.64 5.91Z" fill="#FFFFFF" fill-opacity="1.000000" fill-rule="evenodd"/>
	</g>
</svg>
