<svg width="20.000000" height="20.000000" viewBox="0 0 20 20" fill="none" xmlns="http://www.w3.org/2000/svg" xmlns:xlink="http://www.w3.org/1999/xlink">
	<desc>
			Created with Pixso.
	</desc>
	<defs>
		<clipPath id="clip7051_154857">
			<rect id="24px/文件类型(树结构)/go" width="20.000000" height="20.000000" fill="white" fill-opacity="0"/>
		</clipPath>
	</defs>
	<g clip-path="url(#clip7051_154857)">
		<path id="矢量 343" d="M7 1.66L12.99 1.66C14.86 1.66 15.79 1.66 16.51 2.03C17.14 2.35 17.65 2.85 17.97 3.48C18.33 4.2 18.33 5.13 18.33 7L18.33 13C18.33 14.86 18.33 15.8 17.97 16.51C17.65 17.14 17.14 17.65 16.51 17.97C15.79 18.33 14.86 18.33 12.99 18.33L7 18.33C5.13 18.33 4.2 18.33 3.48 17.97C2.85 17.65 2.34 17.14 2.02 16.51C1.66 15.8 1.66 14.86 1.66 13L1.66 7C1.66 5.13 1.66 4.2 2.02 3.48C2.34 2.85 2.85 2.35 3.48 2.03C4.2 1.66 5.13 1.66 7 1.66Z" fill="#2A9CDF" fill-opacity="1.000000" fill-rule="evenodd"/>
		<path id="矢量 280" d="M5.13 5.29C4.89 5.5 4.7 5.76 4.55 6.08C4.41 6.4 4.34 6.76 4.34 7.18L4.34 12.81C4.34 13.25 4.41 13.62 4.55 13.92C4.69 14.22 4.9 14.49 5.13 14.69C5.27 14.81 5.42 14.92 5.58 15.01C5.68 15.07 5.79 15.12 5.91 15.16C6.17 15.26 6.43 15.31 6.7 15.32C6.73 15.32 6.77 15.32 6.8 15.32C6.84 15.32 6.87 15.32 6.91 15.32C7.17 15.31 7.43 15.26 7.69 15.16C7.77 15.13 7.86 15.1 7.94 15.05C8.13 14.96 8.32 14.83 8.49 14.68C8.72 14.48 8.9 14.23 9.04 13.92C9.19 13.62 9.26 13.25 9.26 12.81L9.26 10.39C9.26 9.93 8.89 9.56 8.43 9.56L7.29 9.56C6.98 9.56 6.72 9.81 6.72 10.13C6.72 10.44 6.98 10.7 7.29 10.7L7.94 10.7L7.94 12.81C7.94 13.16 7.85 13.43 7.68 13.63C7.65 13.66 7.63 13.68 7.6 13.71C7.5 13.79 7.4 13.86 7.29 13.9C7.14 13.97 6.97 14 6.8 14C6.63 14 6.47 13.97 6.33 13.91C6.21 13.86 6.11 13.8 6.01 13.71C5.97 13.68 5.95 13.66 5.92 13.63C5.75 13.43 5.66 13.16 5.66 12.81L5.66 7.18C5.66 6.82 5.83 6.47 6.01 6.28C6.11 6.19 6.21 6.13 6.33 6.08C6.47 6.02 6.63 5.99 6.8 5.99C6.98 5.99 7.14 6.02 7.29 6.09C7.4 6.13 7.58 6.28 7.68 6.36C7.82 6.52 7.89 6.73 7.92 6.95C7.96 7.31 8.24 7.61 8.6 7.61C8.96 7.61 9.27 7.31 9.24 6.95C9.22 6.65 9.17 6.35 9.04 6.08C8.9 5.76 8.72 5.5 8.49 5.29C8.35 5.17 8.2 5.07 8.04 4.98C7.93 4.92 7.81 4.87 7.69 4.83C7.43 4.73 7.16 4.68 6.9 4.67C6.86 4.67 6.83 4.67 6.8 4.67C6.76 4.67 6.73 4.67 6.7 4.67C6.43 4.68 6.17 4.73 5.91 4.83C5.75 4.89 5.6 4.96 5.45 5.05C5.34 5.12 5.23 5.2 5.13 5.29ZM11.52 5.29C11.28 5.5 11.09 5.76 10.94 6.08C10.8 6.4 10.73 6.76 10.73 7.18L10.73 12.81C10.73 13.25 10.8 13.62 10.94 13.92C11.08 14.22 11.29 14.49 11.52 14.69C11.66 14.81 11.81 14.92 11.97 15.01C12.07 15.07 12.18 15.12 12.3 15.16C12.56 15.26 12.82 15.31 13.09 15.32C13.12 15.32 13.16 15.32 13.19 15.32C13.23 15.32 13.26 15.32 13.3 15.32C13.56 15.31 13.82 15.26 14.08 15.16C14.16 15.13 14.25 15.1 14.33 15.05C14.52 14.96 14.71 14.83 14.88 14.68C15.11 14.48 15.29 14.23 15.43 13.92C15.58 13.62 15.65 13.25 15.65 12.81L15.65 7.18C15.65 6.76 15.58 6.4 15.43 6.08C15.29 5.76 15.11 5.5 14.88 5.29C14.74 5.17 14.59 5.07 14.43 4.98C14.31 4.92 14.2 4.87 14.08 4.83C13.82 4.73 13.55 4.68 13.29 4.67C13.25 4.67 13.22 4.67 13.19 4.67C13.15 4.67 13.12 4.67 13.09 4.67C12.82 4.68 12.56 4.73 12.3 4.83C12.14 4.89 11.99 4.96 11.84 5.05C11.73 5.12 11.62 5.2 11.52 5.29ZM12.4 13.71C12.36 13.68 12.34 13.66 12.31 13.63C12.14 13.43 12.05 13.16 12.05 12.81L12.05 7.18C12.05 6.82 12.22 6.47 12.4 6.28C12.5 6.19 12.6 6.13 12.72 6.08C12.86 6.02 13.02 5.99 13.19 5.99C13.37 5.99 13.53 6.02 13.68 6.09C13.79 6.13 13.97 6.28 14.07 6.36C14.24 6.55 14.33 6.82 14.33 7.18L14.33 12.81C14.33 13.16 14.24 13.43 14.07 13.63C14.04 13.66 14.02 13.68 13.99 13.71C13.89 13.79 13.79 13.86 13.68 13.9C13.53 13.97 13.36 14 13.19 14C13.02 14 12.86 13.97 12.72 13.91C12.6 13.86 12.5 13.8 12.4 13.71Z" fill="#FFFFFF" fill-opacity="1.000000" fill-rule="evenodd"/>
	</g>
</svg>
