<svg width="20.000000" height="20.000000" viewBox="0 0 20 20" fill="none" xmlns="http://www.w3.org/2000/svg" xmlns:xlink="http://www.w3.org/1999/xlink">
	<desc>
			Created with Pixso.
	</desc>
	<defs/>
	<rect id="24px/文件类型(树结构)/.h" width="20.000000" height="20.000000" fill="#FFFFFF" fill-opacity="0"/>
	<path id="矢量 351" d="M7 1.66L12.99 1.66C14.86 1.66 15.79 1.66 16.51 2.02C17.14 2.34 17.65 2.85 17.97 3.48C18.33 4.19 18.33 5.13 18.33 7L18.33 13C18.33 14.86 18.33 15.8 17.97 16.51C17.65 17.14 17.14 17.65 16.51 17.96C15.79 18.33 14.86 18.33 12.99 18.33L7 18.33C5.13 18.33 4.2 18.33 3.48 17.96C2.85 17.65 2.34 17.14 2.02 16.51C1.66 15.8 1.66 14.86 1.66 13L1.66 7C1.66 5.13 1.66 4.19 2.02 3.48C2.34 2.85 2.85 2.34 3.48 2.02C4.2 1.66 5.13 1.66 7 1.66Z" fill="#F49755" fill-opacity="1.000000" fill-rule="evenodd"/>
	<path id="矢量 358" d="M6.93 15.09L6.93 4.9C6.93 4.84 6.94 4.79 6.95 4.73C6.96 4.69 6.97 4.65 6.99 4.61C7.01 4.57 7.03 4.53 7.05 4.5C7.08 4.45 7.11 4.42 7.15 4.38C7.18 4.34 7.22 4.31 7.26 4.29C7.29 4.27 7.35 4.24 7.38 4.22C7.42 4.21 7.46 4.19 7.5 4.18C7.54 4.18 7.62 4.17 7.66 4.17C7.72 4.17 7.8 4.17 7.86 4.18C7.9 4.19 7.94 4.21 7.98 4.22C8.02 4.24 8.06 4.26 8.09 4.29C8.13 4.31 8.17 4.34 8.21 4.38C8.24 4.42 8.28 4.45 8.3 4.5C8.33 4.53 8.35 4.57 8.37 4.61C8.38 4.65 8.39 4.69 8.4 4.73C8.42 4.79 8.42 4.84 8.42 4.9L8.42 9.25L11.56 9.25L11.56 4.9C11.56 4.84 11.57 4.79 11.58 4.73C11.59 4.69 11.6 4.65 11.62 4.61C11.64 4.57 11.66 4.53 11.68 4.5C11.71 4.45 11.74 4.42 11.78 4.38C11.81 4.34 11.85 4.31 11.89 4.29C11.92 4.27 11.98 4.24 12.01 4.22C12.05 4.21 12.09 4.19 12.13 4.18C12.18 4.17 12.24 4.17 12.29 4.17C12.35 4.17 12.44 4.17 12.49 4.18C12.53 4.19 12.57 4.21 12.61 4.22C12.65 4.24 12.69 4.26 12.73 4.29C12.77 4.31 12.81 4.34 12.84 4.38C12.88 4.42 12.91 4.45 12.94 4.5C12.96 4.53 12.98 4.57 13 4.61C13.02 4.65 13.03 4.69 13.04 4.73C13.05 4.79 13.06 4.84 13.06 4.9L13.06 15.09C13.06 15.15 13.05 15.2 13.04 15.26C13.03 15.3 13.02 15.34 13 15.38C12.98 15.42 12.96 15.46 12.94 15.49C12.91 15.54 12.88 15.57 12.84 15.61C12.81 15.65 12.77 15.68 12.73 15.71C12.69 15.73 12.65 15.75 12.61 15.77C12.57 15.78 12.53 15.8 12.49 15.81C12.44 15.82 12.38 15.82 12.33 15.82C12.27 15.82 12.18 15.82 12.13 15.81C12.09 15.8 12.05 15.78 12.01 15.77C11.97 15.75 11.93 15.73 11.89 15.71C11.85 15.68 11.81 15.65 11.78 15.61C11.74 15.57 11.71 15.53 11.68 15.49C11.66 15.46 11.64 15.42 11.62 15.38C11.6 15.34 11.59 15.3 11.58 15.26C11.57 15.2 11.56 15.15 11.56 15.09L11.56 10.54L8.42 10.54L8.42 15.09C8.42 15.15 8.42 15.2 8.4 15.26C8.39 15.3 8.38 15.34 8.37 15.38C8.35 15.42 8.33 15.46 8.3 15.49C8.28 15.54 8.24 15.57 8.21 15.61C8.17 15.65 8.13 15.68 8.09 15.71C8.06 15.73 8.02 15.75 7.98 15.77C7.94 15.78 7.9 15.8 7.86 15.81C7.81 15.81 7.74 15.82 7.69 15.82C7.64 15.82 7.55 15.82 7.5 15.81C7.46 15.8 7.42 15.78 7.38 15.77C7.34 15.75 7.3 15.73 7.26 15.71C7.22 15.68 7.18 15.65 7.15 15.61C7.11 15.57 7.08 15.54 7.05 15.49C7.03 15.46 7.01 15.42 6.99 15.38C6.97 15.34 6.96 15.3 6.95 15.26C6.94 15.2 6.93 15.15 6.93 15.09Z" fill="#FFFFFF" fill-opacity="1.000000" fill-rule="evenodd"/>
</svg>
