<svg viewBox="0 0 20 20" xmlns="http://www.w3.org/2000/svg" xmlns:xlink="http://www.w3.org/1999/xlink" width="20" height="20" fill="none">
	<rect id="24px/文件类型(树结构)/HAP" width="20" height="20" x="0" y="0" fill="rgb(0,0,0)" fill-opacity="0" />
	<path id="矢量 265" d="M7.00032 1.66675L12.9997 1.66675C14.8665 1.66675 15.8 1.66675 16.5137 2.03001C17.1403 2.34963 17.6505 2.85958 17.9704 3.48682C18.3333 4.19981 18.3333 5.13324 18.3333 7.0001L18.3333 13.0001C18.3333 14.8669 18.3333 15.8004 17.9704 16.5133C17.6505 17.1406 17.1403 17.6505 16.5137 17.9701C15.8 18.3334 14.8665 18.3334 12.9997 18.3334L7.00032 18.3334C5.13345 18.3334 4.20002 18.3334 3.48632 17.9701C2.85969 17.6505 2.34944 17.1406 2.02961 16.5133C1.66666 15.8004 1.66666 14.8669 1.66666 13.0001L1.66666 7.0001C1.66666 5.13324 1.66666 4.19981 2.02961 3.48682C2.34944 2.85958 2.85969 2.34963 3.48632 2.03001C4.20002 1.66675 5.13345 1.66675 7.00032 1.66675Z" fill="rgb(57.0438,145.506,241.339)" fill-rule="evenodd" />
	<path id="HAP" d="M3.33334 6.51773L3.33334 13.6594C3.33334 13.9884 3.60011 14.2552 3.92919 14.2552C4.25827 14.2552 4.52504 13.9884 4.52504 13.6594L4.52504 10.5458L5.99967 10.5458L5.99967 13.6579C5.99967 13.9878 6.26708 14.2552 6.59695 14.2552C6.92682 14.2552 7.19423 13.9878 7.19423 13.6579L7.19423 6.51915C7.19423 6.18929 6.92682 5.92188 6.59695 5.92188C6.26708 5.92188 5.99967 6.18929 5.99967 6.51915L5.99967 9.49126L4.52504 9.49126L4.52504 6.51773C4.52504 6.18865 4.25827 5.92188 3.92919 5.92188C3.60011 5.92188 3.33334 6.18865 3.33334 6.51773ZM7.93663 13.5526L9.53155 6.40858C9.59505 6.12414 9.84745 5.92188 10.1389 5.92188C10.4303 5.92188 10.6827 6.12414 10.7462 6.40858L12.3412 13.5526C12.4216 13.9131 12.1474 14.2552 11.7781 14.2552C11.5024 14.2552 11.2651 14.06 11.2121 13.7894L10.9519 12.4634L9.32585 12.4634L9.06572 13.7894C9.01263 14.06 8.77542 14.2552 8.49964 14.2552C8.13035 14.2552 7.85616 13.9131 7.93663 13.5526ZM13.0841 5.92188L13.0841 13.6594C13.0841 13.9884 13.3508 14.2552 13.6799 14.2552C14.009 14.2552 14.2758 13.9884 14.2758 13.6594L14.2758 11.0002L14.8845 11.0002C15.3303 11.0002 15.6894 10.9249 15.9619 10.7744C16.2362 10.622 16.4553 10.4086 16.6191 10.1343C16.7582 9.90755 16.8487 9.66559 16.8906 9.40839C16.9345 9.15118 16.9564 8.83492 16.9564 8.4596C16.9564 7.96044 16.9173 7.56511 16.8392 7.27361Q16.7711 7.01772 16.6401 6.7995Q16.5459 6.64242 16.4191 6.50487C16.2152 6.28767 15.9885 6.13621 15.7389 6.05048C15.4894 5.96474 15.2007 5.92188 14.873 5.92188L13.0841 5.92188ZM14.2758 9.87706L14.2758 7.04499L14.8959 7.04499C15.1302 7.04499 15.3093 7.08024 15.4332 7.15073C15.5589 7.22122 15.6532 7.3222 15.7161 7.45365C15.779 7.58702 15.8142 7.74134 15.8218 7.91662C15.8294 8.0919 15.8333 8.27765 15.8333 8.47389Q15.8333 8.78824 15.8161 9.04545C15.8047 9.21691 15.7675 9.36171 15.7047 9.47983C15.6418 9.60367 15.5437 9.70083 15.4103 9.77133C15.2788 9.84182 15.0921 9.87706 14.8502 9.87706L14.2758 9.87706ZM10.729 11.3403L10.146 8.31957L10.1203 8.31957L9.53732 11.3403L10.729 11.3403Z" fill="rgb(255,255,255)" fill-rule="evenodd" />
</svg>
