<svg viewBox="0 0 20 20" xmlns="http://www.w3.org/2000/svg" xmlns:xlink="http://www.w3.org/1999/xlink" width="20" height="20" fill="none" customFrame="#000000">
	<rect id="24px/文件类型(树结构)/har" width="20" height="20" x="0" y="0" fill="rgb(255,255,255)" fill-opacity="0" />
	<path id="矢量 265" d="M7.00032 1.66675L12.9997 1.66675C14.8665 1.66675 15.8 1.66675 16.5137 2.03001C17.1403 2.34963 17.6505 2.85958 17.9704 3.48682C18.3333 4.19981 18.3333 5.13324 18.3333 7.0001L18.3333 13.0001C18.3333 14.8669 18.3333 15.8004 17.9704 16.5133C17.6505 17.1406 17.1403 17.6505 16.5137 17.9701C15.8 18.3334 14.8665 18.3334 12.9997 18.3334L7.00032 18.3334C5.13345 18.3334 4.20002 18.3334 3.48632 17.9701C2.85969 17.6505 2.34944 17.1406 2.02961 16.5133C1.66666 15.8004 1.66666 14.8669 1.66666 13.0001L1.66666 7.0001C1.66666 5.13324 1.66666 4.19981 2.02961 3.48682C2.34944 2.85958 2.85969 2.34963 3.48632 2.03001C4.20002 1.66675 5.13345 1.66675 7.00032 1.66675Z" fill="rgb(77.529,182.143,62.0942)" fill-rule="evenodd" />
	<path id="HAR" d="M3.33334 6.4291L3.33334 13.5707C3.33334 13.8998 3.60011 14.1666 3.92919 14.1666C4.25827 14.1666 4.52504 13.8998 4.52504 13.5707L4.52504 10.4572L5.99967 10.4572L5.99967 13.5693C5.99967 13.8992 6.26708 14.1666 6.59695 14.1666C6.92682 14.1666 7.19423 13.8992 7.19423 13.5693L7.19423 6.43053C7.19423 6.10066 6.92682 5.83325 6.59695 5.83325C6.26708 5.83325 5.99967 6.10066 5.99967 6.43053L5.99967 9.40264L4.52504 9.40264L4.52504 6.4291C4.52504 6.10002 4.25827 5.83325 3.92919 5.83325C3.60011 5.83325 3.33334 6.10002 3.33334 6.4291ZM7.93663 13.464L9.53155 6.31996C9.59505 6.03552 9.84745 5.83325 10.1389 5.83325C10.4303 5.83325 10.6827 6.03552 10.7462 6.31996L12.3412 13.464C12.4216 13.8244 12.1474 14.1666 11.7781 14.1666C11.5024 14.1666 11.2651 13.9714 11.2121 13.7008L10.9519 12.3747L9.32584 12.3747L9.06572 13.7008C9.01263 13.9714 8.77542 14.1666 8.49964 14.1666C8.13035 14.1666 7.85616 13.8244 7.93663 13.464ZM13.0841 6.83325L13.0841 13.5707C13.0841 13.8998 13.3508 14.1666 13.6799 14.1666C14.009 14.1666 14.2758 13.8998 14.2758 13.5707L14.2758 10.6086L14.9902 10.6086L15.9716 13.7495C16.0491 13.9976 16.2789 14.1666 16.5389 14.1666C16.9458 14.1666 17.2324 13.7669 17.1018 13.3814L16.079 10.3629C16.462 10.1514 16.7296 9.87418 16.8821 9.53124Q17.1107 9.01684 17.1107 8.27953Q17.1107 6.87628 16.4167 6.27798Q15.9009 5.83325 15.0016 5.83325L14.0841 5.83325C13.5318 5.83325 13.0841 6.28097 13.0841 6.83325ZM14.2758 9.5541L14.2758 6.95637L14.8959 6.95637C15.3112 6.95637 15.5922 7.06591 15.7389 7.28501C15.8094 7.40123 15.8561 7.53936 15.879 7.69939C15.9037 7.85943 15.9161 8.04519 15.9161 8.25666Q15.9161 8.57102 15.879 8.81108C15.8561 8.97111 15.8132 9.10543 15.7504 9.21402C15.6818 9.32453 15.5846 9.40931 15.4589 9.46837C15.335 9.52552 15.1674 9.5541 14.9559 9.5541L14.2758 9.5541ZM10.729 11.2516L10.146 8.23094L10.1203 8.23094L9.53732 11.2516L10.729 11.2516Z" fill="rgb(255,254.745,254.745)" fill-rule="evenodd" />
</svg>
