<svg viewBox="0 0 20 20" xmlns="http://www.w3.org/2000/svg" xmlns:xlink="http://www.w3.org/1999/xlink" width="20" height="20" fill="none">
	<rect id="24px/文件类型(树结构)/HSP" width="20" height="20" x="0" y="0" fill="rgb(0,0,0)" fill-opacity="0" />
	<path id="矢量 265" d="M7.00032 1.66675L12.9997 1.66675C14.8665 1.66675 15.8 1.66675 16.5137 2.03001C17.1403 2.34963 17.6505 2.85958 17.9704 3.48682C18.3333 4.19981 18.3333 5.13324 18.3333 7.0001L18.3333 13.0001C18.3333 14.8669 18.3333 15.8004 17.9704 16.5133C17.6505 17.1406 17.1403 17.6505 16.5137 17.9701C15.8 18.3334 14.8665 18.3334 12.9997 18.3334L7.00032 18.3334C5.13345 18.3334 4.20002 18.3334 3.48632 17.9701C2.85969 17.6505 2.34944 17.1406 2.02961 16.5133C1.66666 15.8004 1.66666 14.8669 1.66666 13.0001L1.66666 7.0001C1.66666 5.13324 1.66666 4.19981 2.02961 3.48682C2.34944 2.85958 2.85969 2.34963 3.48632 2.03001C4.20002 1.66675 5.13345 1.66675 7.00032 1.66675Z" fill="rgb(40.0611,179.866,179.866)" fill-rule="evenodd" />
	<path id="HSP" d="M12.1548 7.76327C12.1914 8.0855 11.9221 8.34939 11.5978 8.34939C11.2735 8.34939 11.0327 8.08235 10.9664 7.7649C10.9385 7.63119 10.8931 7.50381 10.8195 7.39131Q10.7726 7.31772 10.7096 7.2625Q10.5199 7.0963 10.1846 7.0963Q9.94294 7.0963 9.79122 7.18901C9.69195 7.24895 9.61141 7.32575 9.54959 7.4194C9.48965 7.51868 9.44751 7.632 9.42316 7.75937Q9.38945 7.94761 9.38945 8.15552Q9.38945 8.39715 9.4063 8.5573C9.41754 8.66406 9.44658 8.75959 9.4934 8.84388C9.53835 8.93004 9.60485 9.00403 9.69288 9.06584C9.78279 9.12578 9.90454 9.18665 10.0581 9.24847L10.9544 9.60529C11.2148 9.70456 11.4255 9.82163 11.5866 9.95649C11.7477 10.0895 11.8741 10.2449 11.9659 10.4229Q12.0951 10.6982 12.1401 11.0494Q12.185 11.4006 12.185 11.8502C12.185 12.1948 12.1504 12.5151 12.0811 12.8111C12.0136 13.1051 11.9031 13.3561 11.7495 13.564C11.5884 13.7794 11.3768 13.949 11.1146 14.0726Q10.724 14.2552 10.1593 14.2552Q9.76003 14.2552 9.41054 14.1233Q9.38866 14.1151 9.36697 14.1063C9.12159 14.0052 8.90994 13.8665 8.73199 13.6905C8.55592 13.5144 8.41638 13.3093 8.31336 13.0752C8.22818 12.8816 8.18983 12.6719 8.17263 12.4581C8.14668 12.1356 8.42111 11.8727 8.74464 11.8727C9.06817 11.8727 9.30449 12.1392 9.36934 12.4561C9.39656 12.5892 9.44284 12.7147 9.5215 12.8223Q9.54747 12.8574 9.57816 12.8878Q9.77327 13.0808 10.1593 13.0808C10.3597 13.0808 10.5152 13.0518 10.6257 12.9937C10.7381 12.9356 10.8242 12.8532 10.8842 12.7464C10.946 12.6397 10.9825 12.5114 10.9937 12.3615C11.005 12.2117 11.0106 12.045 11.0106 11.8614C11.0106 11.646 11.0031 11.469 10.9881 11.3304C10.9731 11.1918 10.9432 11.0803 10.8982 10.996C10.8439 10.9118 10.7727 10.8434 10.6847 10.7909C10.5966 10.7366 10.4796 10.6786 10.3335 10.6167L9.4934 10.2712C8.9858 10.0651 8.64583 9.79166 8.47351 9.45076Q8.21502 8.9366 8.21502 8.16676Q8.21502 7.70598 8.34146 7.29297Q8.46789 6.87715 8.72076 6.57933C8.88184 6.37891 9.08694 6.21969 9.33606 6.10169Q9.71255 5.92188 10.2295 5.92188Q10.6678 5.92188 11.0303 6.08483Q11.3664 6.23338 11.618 6.47135Q11.6377 6.48995 11.6568 6.50909C11.9665 6.83356 12.1018 7.2957 12.1548 7.76327ZM3.48672 6.57792L3.48672 13.5992C3.48672 13.9227 3.749 14.185 4.07253 14.185C4.39606 14.185 4.65834 13.9227 4.65834 13.5992L4.65834 10.5381L6.1081 10.5381L6.1081 13.5978C6.1081 13.9221 6.371 14.185 6.69531 14.185C7.01962 14.185 7.28252 13.9221 7.28252 13.5978L7.28252 6.57933C7.28252 6.25502 7.01962 5.99212 6.69531 5.99212C6.371 5.99212 6.1081 6.25502 6.1081 6.57933L6.1081 9.50133L4.65834 9.50133L4.65834 6.57792C4.65834 6.25439 4.39606 5.99212 4.07253 5.99212C3.749 5.99212 3.48672 6.25439 3.48672 6.57792ZM13.0616 6.99212L13.0616 13.5992C13.0616 13.9227 13.3238 14.185 13.6474 14.185C13.9709 14.185 14.2332 13.9227 14.2332 13.5992L14.2332 10.9848L14.8316 10.9848Q15.4891 10.9848 15.8908 10.7628C16.1606 10.613 16.376 10.4032 16.5371 10.1335C16.6738 9.9106 16.7628 9.67272 16.804 9.41985C16.847 9.16699 16.8686 8.85605 16.8686 8.48706Q16.8686 7.75094 16.7534 7.32107C16.6766 7.03261 16.5389 6.78068 16.3404 6.56528C16.14 6.35175 15.9171 6.20284 15.6717 6.11855Q15.3036 5.99212 14.8204 5.99212L14.0616 5.99212C13.5093 5.99212 13.0616 6.43983 13.0616 6.99212ZM14.2332 9.88063L14.2332 7.0963L14.8429 7.0963C15.0732 7.0963 15.2493 7.13095 15.3711 7.20025C15.4947 7.26956 15.5874 7.36883 15.6492 7.49807C15.711 7.62919 15.7457 7.78091 15.7532 7.95323C15.7607 8.12555 15.7644 8.30818 15.7644 8.50111Q15.7644 8.81016 15.7475 9.06303C15.7363 9.23161 15.6998 9.37396 15.638 9.49009C15.5762 9.61184 15.4797 9.70737 15.3486 9.77667C15.2193 9.84598 15.0358 9.88063 14.7979 9.88063L14.2332 9.88063Z" fill="rgb(255,255,255)" fill-rule="evenodd" />
</svg>
