<svg width="20.000000" height="20.000000" viewBox="0 0 20 20" fill="none" xmlns="http://www.w3.org/2000/svg" xmlns:xlink="http://www.w3.org/1999/xlink">
	<desc>
			Created with Pixso.
	</desc>
	<defs>
		<clipPath id="clip1_440">
			<rect width="20.000000" height="20.000000" fill="white" fill-opacity="0"/>
		</clipPath>
	</defs>
	<g clip-path="url(#clip1_440)">
		<path d="M7 1.66L12.99 1.66C14.86 1.66 15.8 1.66 16.51 2.02C17.14 2.34 17.65 2.85 17.97 3.48C18.33 4.19 18.33 5.13 18.33 7L18.33 13C18.33 14.86 18.33 15.8 17.97 16.51C17.65 17.14 17.14 17.65 16.51 17.96C15.8 18.33 14.86 18.33 12.99 18.33L7 18.33C5.13 18.33 4.2 18.33 3.48 17.96C2.85 17.65 2.34 17.14 2.02 16.51C1.66 15.8 1.66 14.86 1.66 13L1.66 7C1.66 5.13 1.66 4.19 2.02 3.48C2.34 2.85 2.85 2.34 3.48 2.02C4.2 1.66 5.13 1.66 7 1.66Z" fill="#C76540" fill-opacity="1.000000" fill-rule="evenodd"/>
		<path d="M5.5 9.5L5.11 5.17C5.07 4.69 5.45 4.27 5.94 4.27L14.09 4.27C14.51 4.27 14.85 4.63 14.81 5.05C14.77 5.43 14.46 5.71 14.09 5.71L6.61 5.71L6.89 8.81L13.55 8.81C14.04 8.81 14.43 9.23 14.38 9.72L13.99 14.09C13.96 14.37 13.79 14.63 13.53 14.76L10.33 16.36C10.09 16.48 9.82 16.48 9.58 16.36L6.38 14.76C6.12 14.63 5.95 14.38 5.92 14.09L5.81 12.91C5.78 12.49 6.11 12.12 6.53 12.12C6.91 12.12 7.22 12.41 7.25 12.78L7.33 13.62L9.95 14.93L12.58 13.62L12.88 10.26L6.33 10.26C5.9 10.26 5.54 9.93 5.5 9.5Z" fill="#FFFFFF" fill-opacity="1.000000" fill-rule="evenodd"/>
	</g>
</svg>
