<svg width="20.000000" height="20.000000" viewBox="0 0 20 20" fill="none" xmlns="http://www.w3.org/2000/svg" xmlns:xlink="http://www.w3.org/1999/xlink">
	<desc>
			Created with Pixso.
	</desc>
	<defs>
		<clipPath id="clip2521_34341">
			<rect id="浅色" width="20.000000" height="20.000000" fill="white" fill-opacity="0"/>
		</clipPath>
	</defs>
	<g clip-path="url(#clip2521_34341)">
		<path id="矢量 341" d="M6.69 1.7L12.69 1.7C14.56 1.7 15.49 1.7 16.21 2.06C16.83 2.38 17.34 2.89 17.66 3.52C18.03 4.23 18.03 5.17 18.03 7.03L18.03 13.03C18.03 14.9 18.03 15.83 17.66 16.55C17.34 17.17 16.83 17.68 16.21 18C15.49 18.37 14.56 18.37 12.69 18.37L6.69 18.37C4.83 18.37 3.89 18.37 3.18 18C2.55 17.68 2.04 17.17 1.72 16.55C1.36 15.83 1.36 14.9 1.36 13.03L1.36 7.03C1.36 5.17 1.36 4.23 1.72 3.52C2.04 2.89 2.55 2.38 3.18 2.06C3.89 1.7 4.83 1.7 6.69 1.7Z" fill="#FDC800" fill-opacity="1.000000" fill-rule="evenodd"/>
		<path id="矢量 251" d="M14.52 7.6C14.58 7.62 14.66 7.63 14.73 7.63C14.82 7.63 14.9 7.61 14.98 7.58C15.06 7.55 15.13 7.5 15.19 7.44C15.25 7.37 15.3 7.31 15.33 7.23C15.36 7.15 15.38 7.07 15.38 6.98C15.38 6.76 15.35 6.55 15.29 6.35C15.18 6.01 14.96 5.66 14.69 5.37C14.47 5.17 14.22 5 13.93 4.87C13.63 4.74 13.3 4.67 12.93 4.67C12.5 4.67 12.12 4.74 11.81 4.89C11.55 5.02 11.32 5.18 11.14 5.38C11.11 5.42 11.07 5.45 11.04 5.49C10.83 5.74 10.68 6.04 10.57 6.38C10.46 6.73 10.41 7.1 10.41 7.49C10.41 8.14 10.52 8.69 10.74 9.12C10.95 9.54 11.37 9.88 12.01 10.14L13.11 10.59C13.3 10.67 13.46 10.75 13.58 10.82C13.65 10.87 13.72 10.92 13.78 10.98C13.82 11.03 13.86 11.08 13.89 11.13C13.96 11.25 14 11.41 14.02 11.6C14.04 11.79 14.05 12.02 14.05 12.31C14.05 12.55 14.05 12.77 14.03 12.97C14.02 13.18 13.96 13.36 13.88 13.51C13.84 13.58 13.79 13.64 13.74 13.69C13.67 13.76 13.59 13.83 13.5 13.88C13.34 13.96 13.12 14 12.84 14C12.49 14 12.22 13.91 12.03 13.74C11.99 13.7 11.96 13.66 11.92 13.62C11.82 13.48 11.75 13.31 11.71 13.1C11.68 12.95 11.62 12.82 11.53 12.71C11.51 12.68 11.48 12.65 11.46 12.62C11.38 12.54 11.29 12.49 11.2 12.46C11.13 12.44 11.07 12.43 11 12.43C10.95 12.43 10.9 12.43 10.86 12.44C10.82 12.45 10.78 12.46 10.74 12.48C10.69 12.5 10.57 12.59 10.53 12.62C10.48 12.66 10.42 12.77 10.39 12.83C10.38 12.86 10.37 12.9 10.36 12.94C10.35 12.98 10.35 13.03 10.35 13.08C10.38 13.38 10.44 13.64 10.53 13.85C10.62 14.06 10.74 14.25 10.87 14.42C10.93 14.49 11.07 14.63 11.13 14.69C11.33 14.88 11.61 15.04 11.89 15.15C12.18 15.27 12.5 15.32 12.84 15.32C13.32 15.32 13.72 15.25 14.04 15.1C14.31 14.97 14.54 14.8 14.72 14.59C14.76 14.55 14.8 14.51 14.83 14.47C15.02 14.21 15.16 13.89 15.24 13.52C15.33 13.14 15.38 12.73 15.38 12.29C15.38 11.91 15.36 11.56 15.32 11.26C15.28 10.97 15.21 10.71 15.1 10.48C15.08 10.43 15.05 10.39 15.02 10.34C14.92 10.18 14.79 10.03 14.63 9.9C14.43 9.74 14.17 9.59 13.84 9.46L12.67 9C12.46 8.92 12.29 8.83 12.17 8.75C12.06 8.67 11.95 8.53 11.88 8.42C11.81 8.3 11.77 8.16 11.75 8.01C11.74 7.87 11.73 7.69 11.73 7.48C11.73 7.29 11.75 7.11 11.78 6.94C11.81 6.76 11.87 6.6 11.96 6.46C11.99 6.41 12.03 6.37 12.06 6.32C12.13 6.25 12.21 6.18 12.31 6.13C12.45 6.04 12.64 5.99 12.87 5.99C13.18 5.99 13.43 6.07 13.61 6.22C13.68 6.28 13.74 6.35 13.79 6.42C13.88 6.57 13.95 6.74 13.99 6.95C14.03 7.1 14.08 7.22 14.16 7.33C14.19 7.37 14.22 7.4 14.25 7.43C14.33 7.51 14.42 7.56 14.52 7.6ZM8.99 12.82L8.99 5.42C8.99 5.33 8.97 5.25 8.94 5.17C8.91 5.09 8.86 5.02 8.79 4.95C8.73 4.89 8.66 4.84 8.58 4.81C8.5 4.78 8.42 4.76 8.33 4.76C8.24 4.76 8.15 4.78 8.07 4.81C8 4.84 7.92 4.89 7.86 4.95C7.8 5.02 7.75 5.09 7.72 5.17C7.68 5.25 7.67 5.33 7.67 5.42L7.67 12.61C7.67 12.89 7.63 13.12 7.55 13.3C7.48 13.48 7.38 13.62 7.25 13.72C7.13 13.83 7.01 13.9 6.87 13.95C6.74 13.98 6.63 14 6.53 14C6.44 14 6.35 13.99 6.26 13.96C6.03 13.9 5.84 13.87 5.68 13.87C5.49 13.88 5.33 13.93 5.2 14.02C5.15 14.07 5.06 14.19 5.03 14.24C5 14.3 4.97 14.43 4.96 14.49C4.96 14.55 4.97 14.6 4.98 14.65C4.99 14.68 5.03 14.76 5.04 14.79C5.08 14.84 5.12 14.88 5.18 14.92C5.22 14.96 5.27 14.99 5.32 15.02C5.62 15.22 6.01 15.32 6.48 15.32C6.89 15.32 7.24 15.26 7.54 15.12C7.79 15.01 8 14.87 8.19 14.7C8.24 14.66 8.28 14.62 8.33 14.58C8.48 14.42 8.6 14.24 8.7 14.05C8.89 13.69 8.99 13.28 8.99 12.82Z" fill="#000000" fill-opacity="0.900000" fill-rule="evenodd"/>
	</g>
</svg>
