<svg width="20.000000" height="20.000000" viewBox="0 0 20 20" fill="none" xmlns="http://www.w3.org/2000/svg" xmlns:xlink="http://www.w3.org/1999/xlink">
	<desc>
			Created with Pixso.
	</desc>
	<defs>
		<clipPath id="clip1_500">
			<rect width="20.000000" height="20.000000" fill="white" fill-opacity="0"/>
		</clipPath>
	</defs>
	<g clip-path="url(#clip1_500)">
		<path d="M7 1.66L12.99 1.66C14.86 1.66 15.8 1.66 16.51 2.02C17.14 2.34 17.65 2.85 17.97 3.48C18.33 4.19 18.33 5.13 18.33 7L18.33 13C18.33 14.86 18.33 15.8 17.97 16.51C17.65 17.14 17.14 17.65 16.51 17.96C15.8 18.33 14.86 18.33 12.99 18.33L7 18.33C5.13 18.33 4.2 18.33 3.48 17.96C2.85 17.65 2.34 17.14 2.02 16.51C1.66 15.8 1.66 14.86 1.66 13L1.66 7C1.66 5.13 1.66 4.19 2.02 3.48C2.34 2.85 2.85 2.34 3.48 2.02C4.2 1.66 5.13 1.66 7 1.66Z" fill="#3F8BDD" fill-opacity="1.000000" fill-rule="evenodd"/>
		<path d="M6.94778 6.64307C6.94778 6.72937 6.96628 6.79712 7.00323 6.84644C7.08127 6.95728 7.18597 7.0127 7.31741 7.0127C7.38312 7.0127 7.45087 6.99219 7.52069 6.95105C7.66031 6.85254 7.77325 6.72314 7.8595 6.56299C7.94986 6.3988 7.99503 6.21399 7.99503 6.00854C7.99503 5.77039 7.93137 5.52405 7.80405 5.26941C7.72604 5.12976 7.68701 5.01062 7.68701 4.91211C7.68701 4.87305 7.69342 4.83643 7.70627 4.80225C7.73935 4.71399 7.81506 4.64185 7.93341 4.58557C8.0936 4.52808 8.17368 4.41101 8.17368 4.2345C8.17368 4.20166 8.16339 4.15649 8.14288 4.099C8.11414 4.02917 8.06485 3.97168 7.99503 3.92651C7.9252 3.88538 7.85541 3.86487 7.78558 3.86487C7.76917 3.86487 7.73013 3.87305 7.66855 3.88953C7.36758 4.04187 7.16245 4.23792 7.05307 4.47766C7.04156 4.50281 7.0311 4.52856 7.02173 4.55481C6.98065 4.66565 6.96011 4.78894 6.96011 4.92444C6.96011 4.97717 6.96347 5.02942 6.97015 5.0813C6.99265 5.25562 7.05295 5.42517 7.15109 5.58972C7.22089 5.72937 7.2558 5.86279 7.2558 5.99011C7.2558 6.15027 7.20651 6.25916 7.10797 6.31665C7.00119 6.39465 6.94778 6.50342 6.94778 6.64307ZM8.96832 6.6554C8.96832 6.70471 8.98886 6.76831 9.02994 6.84644C9.10797 6.95728 9.21063 7.0127 9.33795 7.0127C9.40775 7.0127 9.47757 6.99219 9.54739 6.95105C9.68701 6.85254 9.79996 6.72314 9.8862 6.56299C9.97653 6.3988 10.0217 6.21399 10.0217 6.00854C10.0217 5.77039 9.95807 5.52405 9.83075 5.26941C9.76093 5.15845 9.72604 5.04968 9.72604 4.94287C9.72604 4.88281 9.73785 4.82861 9.76151 4.78015C9.80096 4.69922 9.87332 4.6344 9.97861 4.58557C10.0443 4.55688 10.0998 4.50757 10.1449 4.43774C10.1901 4.36792 10.2127 4.30017 10.2127 4.2345C10.2127 4.20166 10.2024 4.15649 10.1819 4.099C10.1531 4.02917 10.1039 3.97168 10.034 3.92651C9.96423 3.88538 9.89645 3.86487 9.83075 3.86487C9.79791 3.86487 9.75272 3.87305 9.69522 3.88953C9.68701 3.88953 9.60077 3.93469 9.43649 4.02502C9.27222 4.11536 9.14081 4.29199 9.04227 4.55481C9.00528 4.66565 8.98682 4.78479 8.98682 4.91211C8.98682 5.10925 9.05048 5.33508 9.17776 5.58972C9.2558 5.74988 9.29483 5.88953 9.29483 6.00854C9.29483 6.1095 9.26993 6.18945 9.22015 6.24829C9.19702 6.27563 9.16852 6.29834 9.13464 6.31665C9.02377 6.39465 8.96832 6.50757 8.96832 6.6554ZM11.0258 6.6554C11.0258 6.72522 11.0402 6.78894 11.0689 6.84644C11.1593 6.95728 11.264 7.0127 11.3831 7.0127C11.4488 7.0127 11.5166 6.99219 11.5864 6.95105C11.726 6.85254 11.839 6.72314 11.9252 6.56299C12.0156 6.3988 12.0607 6.21399 12.0607 6.00854C12.0607 5.77039 11.9971 5.52405 11.8698 5.26941C11.8 5.15845 11.765 5.04968 11.765 4.94287C11.765 4.88281 11.7769 4.82861 11.8005 4.78015C11.84 4.69922 11.9124 4.6344 12.0176 4.58557C12.0874 4.55688 12.1408 4.50964 12.1778 4.44397C12.2189 4.38232 12.2394 4.31665 12.2394 4.24683C12.2394 4.20569 12.2291 4.15649 12.2086 4.099C12.1798 4.02917 12.1326 3.97168 12.0669 3.92651C12.0053 3.88538 11.9396 3.86487 11.8698 3.86487C11.841 3.86487 11.7958 3.87305 11.7343 3.88953C11.726 3.88953 11.6398 3.93469 11.4755 4.02502C11.3154 4.11536 11.186 4.29199 11.0874 4.55481C11.0464 4.66565 11.0258 4.78479 11.0258 4.91211C11.0258 5.10925 11.0895 5.33508 11.2168 5.58972C11.2948 5.74988 11.3338 5.88953 11.3338 6.00854C11.3338 6.14417 11.2845 6.24683 11.186 6.31665C11.1367 6.35767 11.0977 6.40906 11.0689 6.47058C11.0402 6.53638 11.0258 6.5979 11.0258 6.6554ZM15.6393 9.70496C15.894 9.70496 16.1157 9.79736 16.3046 9.98218C16.4894 10.1711 16.5818 10.3928 16.5818 10.6475L16.5818 11.7994C16.5818 12.042 16.5461 12.2728 16.4746 12.4921C16.4299 12.6292 16.3712 12.7617 16.2985 12.8898C16.1055 13.2184 15.8427 13.4791 15.51 13.6721C15.1815 13.8651 14.8201 13.9617 14.4258 13.9617L13.7913 13.9617C13.4176 14.6228 12.9042 15.1506 12.2513 15.5448C11.9523 15.7264 11.6407 15.8663 11.3164 15.9642C10.9369 16.0789 10.5401 16.1362 10.126 16.1362L8.74612 16.1362C7.99048 16.1362 7.29437 15.9473 6.65784 15.5695C6.02127 15.1958 5.51614 14.6907 5.14243 14.0541C5.00061 13.8141 4.88571 13.5649 4.7977 13.3066C4.65381 12.8842 4.58185 12.4373 4.58185 11.9658L4.58185 8.6947C4.58185 8.54272 4.61008 8.4032 4.6665 8.27625C4.71219 8.17346 4.77637 8.07886 4.85907 7.99243C4.94403 7.90747 5.03769 7.84167 5.14011 7.79492C5.26541 7.73767 5.40375 7.70911 5.55515 7.70911L13.317 7.70911C13.5839 7.70911 13.8159 7.80359 14.0131 7.99243C14.1125 8.08984 14.1868 8.19763 14.2361 8.31592C14.2845 8.43213 14.3087 8.55835 14.3087 8.6947L14.3087 9.70496L15.6393 9.70496ZM15.6702 10.6475L14.3087 10.6351L14.3087 11.9658C14.3087 12.3108 14.2533 12.67 14.1424 13.0438L14.4258 13.0438C14.5972 13.0438 14.756 13.0134 14.9022 12.9525C15.05 12.8909 15.1848 12.7981 15.3067 12.6742C15.4388 12.5399 15.5349 12.3922 15.5949 12.2311C15.6451 12.0966 15.6702 11.9526 15.6702 11.7994L15.6702 10.6475Z" clip-rule="evenodd" fill="#FFFFFF" fill-opacity="1.000000" fill-rule="evenodd"/>
	</g>
</svg>
