<svg width="20.000000" height="20.000000" viewBox="0 0 20 20" fill="none" xmlns="http://www.w3.org/2000/svg" xmlns:xlink="http://www.w3.org/1999/xlink">
	<desc>
			Created with Pixso.
	</desc>
	<defs>
		<clipPath id="clip90_22141">
			<rect id="24px/文件类型(树结构)/jpg" width="20.000000" height="20.000000" fill="white" fill-opacity="0"/>
		</clipPath>
	</defs>
	<g clip-path="url(#clip90_22141)">
		<path id="矢量 348" d="M7 1.66L13 1.66C14.86 1.66 15.79 1.66 16.51 2.03C17.14 2.34 17.65 2.85 17.96 3.48C18.33 4.19 18.33 5.13 18.33 7L18.33 13C18.33 14.86 18.33 15.8 17.96 16.51C17.65 17.14 17.14 17.65 16.51 17.96C15.79 18.33 14.86 18.33 13 18.33L7 18.33C5.13 18.33 4.19 18.33 3.48 17.96C2.85 17.65 2.34 17.14 2.02 16.51C1.66 15.8 1.66 14.86 1.66 13L1.66 7C1.66 5.13 1.66 4.19 2.02 3.48C2.34 2.85 2.85 2.34 3.48 2.03C4.19 1.66 5.13 1.66 7 1.66Z" fill="#000000" fill-opacity="0.400000" fill-rule="evenodd"/>
		<path id="矢量 356" d="M12.65 6.7C12.53 6.97 12.47 7.29 12.47 7.65L12.47 12.35C12.47 12.72 12.53 13.04 12.65 13.31C12.78 13.57 12.95 13.79 13.15 13.97C13.35 14.15 13.58 14.29 13.83 14.38C14.09 14.48 14.34 14.52 14.6 14.52Q14.64 14.52 14.68 14.52Q15.03 14.51 15.37 14.38C15.63 14.29 15.86 14.15 16.07 13.97C16.27 13.79 16.43 13.57 16.55 13.31C16.68 13.04 16.74 12.72 16.74 12.35L16.74 10.38C16.74 9.92 16.37 9.54 15.91 9.54L15.02 9.54C14.71 9.54 14.45 9.8 14.45 10.11C14.45 10.42 14.71 10.67 15.02 10.67L15.47 10.67L15.47 12.35C15.47 12.65 15.38 12.88 15.21 13.03C15.04 13.17 14.84 13.25 14.6 13.25C14.37 13.25 14.17 13.17 14 13.03C13.83 12.88 13.74 12.65 13.74 12.35L13.74 7.65Q13.74 7.23 13.95 7.01Q13.97 6.99 14 6.96C14.17 6.82 14.37 6.75 14.6 6.75C14.84 6.75 15.04 6.82 15.21 6.96C15.35 7.09 15.42 7.26 15.45 7.46C15.5 7.81 15.75 8.09 16.1 8.09C16.46 8.09 16.75 7.81 16.73 7.46C16.71 7.19 16.66 6.93 16.55 6.7C16.43 6.42 16.27 6.19 16.07 6.01C15.86 5.83 15.63 5.7 15.37 5.61Q15.03 5.48 14.68 5.47Q14.64 5.47 14.6 5.47C14.34 5.47 14.09 5.52 13.83 5.61C13.58 5.7 13.35 5.83 13.15 6.01C12.95 6.19 12.78 6.42 12.65 6.7ZM7.09 6.18L7.09 12.35Q7.09 12.94 6.84 13.41Q6.71 13.66 6.51 13.87C6.32 14.07 6.09 14.23 5.83 14.35C5.57 14.46 5.26 14.52 4.91 14.52C4.5 14.52 4.16 14.43 3.89 14.25C3.85 14.23 3.81 14.2 3.78 14.17C3.47 13.95 3.5 13.52 3.79 13.28C4.05 13.08 4.42 13.13 4.75 13.22C4.81 13.24 4.88 13.25 4.95 13.25C5.02 13.25 5.11 13.23 5.21 13.2C5.31 13.17 5.41 13.12 5.5 13.03C5.59 12.96 5.67 12.85 5.72 12.71C5.78 12.58 5.81 12.39 5.81 12.17L5.81 6.18C5.81 5.83 6.1 5.55 6.45 5.55C6.8 5.55 7.09 5.83 7.09 6.18ZM7.87 13.81L7.87 6.38C7.87 5.92 8.25 5.55 8.7 5.55L9.78 5.55C10.13 5.55 10.44 5.59 10.71 5.68C10.97 5.77 11.22 5.94 11.43 6.17C11.65 6.4 11.8 6.68 11.88 6.99Q12.01 7.46 12.01 8.26C12.01 8.66 11.98 8.99 11.94 9.27C11.89 9.54 11.79 9.8 11.65 10.04C11.47 10.34 11.24 10.56 10.94 10.73Q10.51 10.97 9.79 10.97L9.14 10.97L9.14 13.81C9.14 14.16 8.86 14.44 8.51 14.44C8.16 14.44 7.87 14.16 7.87 13.81ZM9.14 6.75L9.14 9.77L9.76 9.77Q10.14 9.77 10.36 9.66C10.5 9.58 10.6 9.48 10.67 9.35C10.74 9.22 10.78 9.06 10.79 8.88C10.8 8.7 10.81 8.49 10.81 8.27Q10.81 7.96 10.8 7.68C10.79 7.49 10.75 7.32 10.68 7.18C10.61 7.04 10.51 6.93 10.38 6.86Q10.18 6.75 9.81 6.75L9.14 6.75Z" fill="#FFFFFF" fill-opacity="1.000000" fill-rule="evenodd"/>
	</g>
</svg>
