<svg width="20.000000" height="20.000000" viewBox="0 0 20 20" fill="none" xmlns="http://www.w3.org/2000/svg" xmlns:xlink="http://www.w3.org/1999/xlink">
	<desc>
			Created with Pixso.
	</desc>
	<defs>
		<clipPath id="clip7051_154875">
			<rect id="24px/文件类型(树结构)/json" width="20.000000" height="20.000000" fill="white" fill-opacity="0"/>
		</clipPath>
	</defs>
	<g clip-path="url(#clip7051_154875)">
		<path id="矢量 328" d="M7 1.66L12.99 1.66C14.86 1.66 15.79 1.66 16.51 2.02C17.14 2.34 17.65 2.85 17.97 3.48C18.33 4.19 18.33 5.13 18.33 7L18.33 13C18.33 14.86 18.33 15.8 17.97 16.51C17.65 17.14 17.14 17.65 16.51 17.96C15.79 18.33 14.86 18.33 12.99 18.33L7 18.33C5.13 18.33 4.2 18.33 3.48 17.96C2.85 17.65 2.34 17.14 2.02 16.51C1.66 15.8 1.66 14.86 1.66 13L1.66 7C1.66 5.13 1.66 4.19 2.02 3.48C2.34 2.85 2.85 2.34 3.48 2.02C4.2 1.66 5.13 1.66 7 1.66Z" fill="#9566FF" fill-opacity="1.000000" fill-rule="evenodd"/>
		<path id="合并" d="M7.29474 7.96924C7.29474 8.57031 7.1955 9.03369 6.99774 9.36035C6.80157 9.68457 6.49884 9.89746 6.08954 9.99854C6.49884 10.0996 6.80157 10.3135 6.99774 10.6401C7.1955 10.9663 7.29474 11.4302 7.29474 12.0312L7.29474 13.5522C7.29474 14.0522 7.37531 14.3994 7.53564 14.5933C7.69843 14.7876 7.97266 14.8848 8.35919 14.8848C8.56268 14.8848 8.7287 15.0498 8.7287 15.2539L8.7287 15.582C8.7287 15.7446 8.59686 15.876 8.43408 15.876C7.66425 15.876 7.09131 15.7148 6.71613 15.3931C6.34015 15.0708 6.15216 14.4951 6.15216 13.667L6.15216 12.1304C6.15216 11.7173 6.10742 11.4009 6.01788 11.1821C5.92841 10.9609 5.7876 10.8062 5.59552 10.7173C5.53046 10.687 5.45636 10.6621 5.37335 10.6421C5.06006 10.5664 4.79395 10.3228 4.79395 10C4.79395 9.67773 5.06006 9.43359 5.37335 9.35791C5.4621 9.33643 5.53937 9.30957 5.60773 9.27686C5.7998 9.18359 5.93817 9.02783 6.02441 8.80859C6.10986 8.58789 6.15216 8.27393 6.15216 7.8667L6.15216 6.33008C6.15216 5.50195 6.34015 4.92773 6.71613 4.60742C7.09131 4.28516 7.66425 4.12402 8.43408 4.12402C8.59686 4.12402 8.7287 4.25586 8.7287 4.41846L8.7287 4.74316C8.7287 4.94727 8.56268 5.1123 8.35919 5.1123C7.97266 5.1123 7.69843 5.21045 7.53564 5.40674C7.37531 5.60107 7.29474 5.94678 7.29474 6.44482L7.29474 7.96924ZM13.0101 9.36035C12.8123 9.03369 12.7131 8.57031 12.7131 7.96924L12.7131 6.44482C12.7131 5.94678 12.6325 5.60107 12.4722 5.40674C12.3094 5.21045 12.0352 5.1123 11.6486 5.1123C11.4451 5.1123 11.2791 4.94727 11.2791 4.74316L11.2791 4.41846C11.2791 4.25586 11.4109 4.12402 11.5737 4.12402C12.3436 4.12402 12.9165 4.28516 13.2917 4.60742C13.6677 4.92773 13.8557 5.50195 13.8557 6.33008L13.8557 7.8667C13.8557 8.27393 13.8979 8.58789 13.9834 8.80859C14.0696 9.02783 14.208 9.18359 14.4001 9.27686C14.4684 9.30957 14.5457 9.33643 14.6345 9.35791C14.9478 9.43359 15.2139 9.67773 15.2139 10C15.2139 10.3228 14.9478 10.5664 14.6345 10.6421C14.5515 10.6621 14.4774 10.687 14.4123 10.7173C14.2202 10.8062 14.0794 10.9609 13.9899 11.1821C13.9004 11.4009 13.8557 11.7173 13.8557 12.1304L13.8557 13.667C13.8557 14.4951 13.6677 15.0708 13.2917 15.3931C12.9165 15.7148 12.3436 15.876 11.5737 15.876C11.4109 15.876 11.2791 15.7446 11.2791 15.582L11.2791 15.2539C11.2791 15.0498 11.4451 14.8848 11.6486 14.8848C12.0352 14.8848 12.3094 14.7876 12.4722 14.5933C12.6325 14.3994 12.7131 14.0522 12.7131 13.5522L12.7131 12.0312C12.7131 11.4302 12.8123 10.9663 13.0101 10.6401C13.2062 10.3135 13.509 10.0996 13.9183 9.99854C13.509 9.89746 13.2062 9.68457 13.0101 9.36035Z" clip-rule="evenodd" fill="#FFFFFF" fill-opacity="1.000000" fill-rule="evenodd"/>
	</g>
</svg>
