<svg width="20.000000" height="20.000000" viewBox="0 0 20 20" fill="none" xmlns="http://www.w3.org/2000/svg" xmlns:xlink="http://www.w3.org/1999/xlink">
	<desc>
			Created with Pixso.
	</desc>
	<defs>
		<clipPath id="clip7051_154877">
			<rect id="24px/文件类型(树结构)/lib" width="20.000000" height="20.000000" fill="white" fill-opacity="0"/>
		</clipPath>
	</defs>
	<g clip-path="url(#clip7051_154877)">
		<path id="矢量 349" d="M7 1.66L12.99 1.66C14.86 1.66 15.79 1.66 16.51 2.02C17.14 2.34 17.65 2.85 17.97 3.48C18.33 4.19 18.33 5.13 18.33 7L18.33 13C18.33 14.86 18.33 15.8 17.97 16.51C17.65 17.14 17.14 17.65 16.51 17.96C15.79 18.33 14.86 18.33 12.99 18.33L7 18.33C5.13 18.33 4.2 18.33 3.48 17.96C2.85 17.65 2.34 17.14 2.02 16.51C1.66 15.8 1.66 14.86 1.66 13L1.66 7C1.66 5.13 1.66 4.19 2.02 3.48C2.34 2.85 2.85 2.34 3.48 2.02C4.2 1.66 5.13 1.66 7 1.66Z" fill="#28B4B4" fill-opacity="1.000000" fill-rule="evenodd"/>
		<path id="矢量 282" d="M3.99 14.23L3.99 5.42C3.99 5.06 4.28 4.76 4.65 4.76C5.01 4.76 5.31 5.06 5.31 5.42L5.31 13.91L7.68 13.91C8.04 13.91 8.34 14.2 8.34 14.57C8.34 14.93 8.04 15.23 7.68 15.23L4.99 15.23C4.44 15.23 3.99 14.78 3.99 14.23ZM8.75 14.57L8.75 5.42C8.75 5.06 9.05 4.76 9.41 4.76C9.78 4.76 10.07 5.06 10.07 5.42L10.07 14.57C10.07 14.93 9.78 15.23 9.41 15.23C9.05 15.23 8.75 14.93 8.75 14.57ZM10.87 14.57L10.87 5.53C10.87 5.1 11.21 4.76 11.64 4.76C11.96 4.76 12.24 4.95 12.36 5.25L14.68 11.19L14.68 11.19L14.68 5.42C14.68 5.05 14.98 4.76 15.34 4.76C15.71 4.76 16 5.05 16 5.42L16 14.48C16 14.89 15.66 15.23 15.25 15.23C14.94 15.23 14.66 15.04 14.55 14.76L12.19 8.81L12.19 8.81L12.19 14.57C12.19 14.93 11.9 15.23 11.53 15.23C11.17 15.23 10.87 14.93 10.87 14.57Z" fill="#FFFFFF" fill-opacity="1.000000" fill-rule="evenodd"/>
	</g>
</svg>
