<svg width="20.000000" height="20.000000" viewBox="0 0 20 20" fill="none" xmlns="http://www.w3.org/2000/svg" xmlns:xlink="http://www.w3.org/1999/xlink">
	<desc>
			Created with Pixso.
	</desc>
	<defs>
		<clipPath id="clip7051_154865">
			<rect id="24px/文件类型(树结构)/md" width="20.000000" height="20.000000" fill="white" fill-opacity="0"/>
		</clipPath>
	</defs>
	<g clip-path="url(#clip7051_154865)">
		<path id="矢量 334" d="M7 1.66L12.99 1.66C14.86 1.66 15.79 1.66 16.51 2.03C17.14 2.35 17.65 2.85 17.97 3.48C18.33 4.2 18.33 5.13 18.33 7L18.33 13C18.33 14.86 18.33 15.8 17.97 16.51C17.65 17.14 17.14 17.65 16.51 17.97C15.79 18.33 14.86 18.33 12.99 18.33L7 18.33C5.13 18.33 4.2 18.33 3.48 17.97C2.85 17.65 2.34 17.14 2.02 16.51C1.66 15.8 1.66 14.86 1.66 13L1.66 7C1.66 5.13 1.66 4.2 2.02 3.48C2.34 2.85 2.85 2.35 3.48 2.03C4.2 1.66 5.13 1.66 7 1.66Z" fill="#9566FF" fill-opacity="1.000000" fill-rule="evenodd"/>
		<path id="合并" d="M14.0319 5.65039C14.0319 5.3999 14.2355 5.19043 14.4861 5.19043C14.7368 5.19043 14.9405 5.3999 14.9405 5.65039L14.947 12.6963L15.8992 12.6963C16.0028 12.6963 16.0863 12.7295 16.1495 12.7988C16.2157 12.8682 16.2488 12.9517 16.2488 13.0493C16.2488 13.144 16.2142 13.2261 16.1453 13.2949L14.7386 14.7095C14.6667 14.7759 14.5782 14.8091 14.489 14.8091C14.3999 14.8091 14.2787 14.731 14.2068 14.6646L12.8413 13.2949C12.7723 13.2261 12.7378 13.144 12.7378 13.0493C12.7378 12.9517 12.7702 12.8682 12.8363 12.7988C12.8583 12.7749 12.8832 12.7554 12.91 12.7397C12.9605 12.7104 13.019 12.6963 13.0866 12.6963L14.0395 12.6963L14.0319 5.65039ZM3.75122 14.1772L3.75122 5.94922C3.75122 5.53174 4.0899 5.19336 4.50732 5.19336C4.74597 5.19336 4.96985 5.30615 5.11255 5.49756L7.82532 9.13672L10.5381 5.49756C10.6808 5.30615 10.9047 5.19336 11.1433 5.19336C11.5607 5.19336 11.8994 5.53174 11.8994 5.94922L11.8994 14.1772C11.8994 14.5249 11.6173 14.8071 11.2696 14.8071C10.9219 14.8071 10.6398 14.5249 10.6398 14.1772L10.6398 7.46826L8.58221 10.229C8.42395 10.4414 8.17383 10.5669 7.90894 10.5669L7.74164 10.5669C7.47681 10.5669 7.22668 10.4414 7.06836 10.229L5.01086 7.46826L5.01086 14.1772C5.01086 14.5249 4.72876 14.8071 4.38104 14.8071C4.03333 14.8071 3.75122 14.5249 3.75122 14.1772Z" clip-rule="evenodd" fill="#FFFFFF" fill-opacity="1.000000" fill-rule="evenodd"/>
	</g>
</svg>
