<svg width="20.000000" height="20.000000" viewBox="0 0 20 20" fill="none" xmlns="http://www.w3.org/2000/svg" xmlns:xlink="http://www.w3.org/1999/xlink">
	<desc>
			Created with Pixso.
	</desc>
	<defs>
		<clipPath id="clip7051_154867">
			<rect id="24px/文件类型(树结构)/obj" width="20.000000" height="20.000000" fill="white" fill-opacity="0"/>
		</clipPath>
	</defs>
	<g clip-path="url(#clip7051_154867)">
		<path id="矢量 260" d="M7 1.66L12.99 1.66C14.86 1.66 15.79 1.66 16.51 2.02C17.14 2.34 17.65 2.85 17.97 3.48C18.33 4.19 18.33 5.13 18.33 7L18.33 13C18.33 14.86 18.33 15.8 17.97 16.51C17.65 17.14 17.14 17.65 16.51 17.96C15.79 18.33 14.86 18.33 12.99 18.33L7 18.33C5.13 18.33 4.2 18.33 3.48 17.96C2.85 17.65 2.34 17.14 2.02 16.51C1.66 15.8 1.66 14.86 1.66 13L1.66 7C1.66 5.13 1.66 4.19 2.02 3.48C2.34 2.85 2.85 2.34 3.48 2.02C4.2 1.66 5.13 1.66 7 1.66Z" fill="#28B4B4" fill-opacity="1.000000" fill-rule="evenodd"/>
		<path id="矢量 371" d="M4.88 6.57C4.63 6.72 4.47 6.99 4.47 7.28L4.47 12.71C4.47 13 4.63 13.27 4.88 13.42L9.58 16.13C9.84 16.28 10.15 16.28 10.41 16.13L15.11 13.42C15.36 13.27 15.52 13 15.52 12.71L15.52 7.28C15.52 6.99 15.36 6.72 15.11 6.57L10.41 3.86C10.15 3.71 9.84 3.71 9.58 3.86L4.88 6.57ZM5.71 8.18L5.71 12.47L9.3 14.55L9.3 10.31L5.71 8.18ZM6.38 7.13L9.93 9.22L13.59 7.12L9.99 5.04L6.38 7.13ZM14.28 8.16L10.55 10.31L10.55 14.62L14.28 12.47L14.28 8.16Z" fill="#FFFFFF" fill-opacity="1.000000" fill-rule="evenodd"/>
	</g>
</svg>
