<svg width="20.000000" height="20.000000" viewBox="0 0 20 20" fill="none" xmlns="http://www.w3.org/2000/svg" xmlns:xlink="http://www.w3.org/1999/xlink">
	<desc>
			Created with Pixso.
	</desc>
	<defs>
		<clipPath id="clip90_22142">
			<rect id="24px/文件类型(树结构)/png" width="20.000000" height="20.000000" fill="white" fill-opacity="0"/>
		</clipPath>
	</defs>
	<g clip-path="url(#clip90_22142)">
		<path id="矢量 347" d="M7 1.66L13 1.66C14.86 1.66 15.79 1.66 16.51 2.03C17.14 2.34 17.65 2.85 17.96 3.48C18.33 4.19 18.33 5.13 18.33 7L18.33 13C18.33 14.86 18.33 15.8 17.96 16.51C17.65 17.14 17.14 17.65 16.51 17.96C15.79 18.33 14.86 18.33 13 18.33L7 18.33C5.13 18.33 4.19 18.33 3.48 17.96C2.85 17.65 2.34 17.14 2.02 16.51C1.66 15.8 1.66 14.86 1.66 13L1.66 7C1.66 5.13 1.66 4.19 2.02 3.48C2.34 2.85 2.85 2.34 3.48 2.03C4.19 1.66 5.13 1.66 7 1.66Z" fill="#000000" fill-opacity="0.400000" fill-rule="evenodd"/>
		<path id="矢量 355" d="M12.91 6.7C12.78 6.97 12.72 7.29 12.72 7.65L12.72 12.35Q12.72 12.91 12.91 13.31C13.03 13.57 13.2 13.79 13.41 13.97C13.61 14.15 13.84 14.29 14.09 14.38Q14.41 14.5 14.74 14.52Q14.8 14.52 14.86 14.52C15.12 14.52 15.37 14.48 15.63 14.38C15.88 14.29 16.11 14.15 16.32 13.97C16.52 13.79 16.68 13.57 16.81 13.31C16.93 13.04 17 12.72 17 12.35L17 10.38C17 9.92 16.62 9.54 16.16 9.54L15.27 9.54C14.96 9.54 14.71 9.8 14.71 10.11C14.71 10.42 14.96 10.67 15.27 10.67L15.72 10.67L15.72 12.35C15.72 12.65 15.64 12.88 15.47 13.03C15.29 13.17 15.09 13.25 14.86 13.25C14.63 13.25 14.42 13.17 14.25 13.03C14.08 12.88 14 12.65 14 12.35L14 7.65Q14 7.23 14.21 7.01Q14.23 6.99 14.25 6.96C14.42 6.82 14.63 6.75 14.86 6.75C15.09 6.75 15.29 6.82 15.47 6.96C15.61 7.09 15.67 7.26 15.7 7.46C15.75 7.81 16.01 8.09 16.36 8.09C16.71 8.09 17.01 7.81 16.98 7.46C16.96 7.19 16.92 6.93 16.81 6.7C16.68 6.42 16.52 6.19 16.32 6.01Q16.13 5.85 15.92 5.74Q15.78 5.66 15.63 5.61C15.37 5.52 15.12 5.47 14.86 5.47Q14.8 5.47 14.74 5.47Q14.41 5.49 14.09 5.61C13.84 5.7 13.61 5.83 13.41 6.01C13.2 6.19 13.03 6.42 12.91 6.7ZM2.99 13.81L2.99 6.38C2.99 5.92 3.37 5.55 3.83 5.55L4.9 5.55C5.25 5.55 5.56 5.59 5.83 5.68C6.1 5.77 6.34 5.94 6.55 6.17C6.77 6.4 6.92 6.68 7 6.99Q7.13 7.46 7.13 8.26C7.13 8.66 7.1 8.99 7.06 9.27C7.01 9.54 6.92 9.8 6.77 10.04C6.59 10.34 6.36 10.56 6.07 10.73C5.78 10.89 5.39 10.97 4.92 10.97L4.27 10.97L4.27 13.81C4.27 14.16 3.98 14.44 3.63 14.44C3.28 14.44 2.99 14.16 2.99 13.81ZM7.61 13.81L7.61 6.27C7.61 5.87 7.93 5.55 8.33 5.55C8.64 5.55 8.91 5.74 9.01 6.02L10.76 10.91L10.79 10.91L10.79 6.18C10.79 5.83 11.07 5.55 11.43 5.55C11.78 5.55 12.06 5.83 12.06 6.18L12.06 13.74C12.06 14.13 11.75 14.44 11.36 14.44C11.06 14.44 10.79 14.26 10.69 13.98L8.91 9.09L8.89 9.09L8.89 13.81C8.89 14.16 8.6 14.44 8.25 14.44C7.9 14.44 7.61 14.16 7.61 13.81ZM4.27 6.75L4.27 9.77L4.88 9.77C5.14 9.77 5.34 9.73 5.48 9.66C5.62 9.58 5.72 9.48 5.79 9.35C5.86 9.22 5.9 9.06 5.91 8.88C5.92 8.7 5.93 8.49 5.93 8.27C5.93 8.06 5.92 7.86 5.92 7.68C5.91 7.49 5.87 7.32 5.8 7.18C5.74 7.04 5.64 6.93 5.5 6.86C5.37 6.78 5.18 6.75 4.93 6.75L4.27 6.75Z" fill="#FFFFFF" fill-opacity="1.000000" fill-rule="evenodd"/>
	</g>
</svg>
