<svg width="20.000000" height="20.000000" viewBox="0 0 20 20" fill="none" xmlns="http://www.w3.org/2000/svg" xmlns:xlink="http://www.w3.org/1999/xlink">
	<desc>
			Created with Pixso.
	</desc>
	<defs>
		<clipPath id="clip8464_180388">
			<rect id="24px/文件类型(树结构)/python" width="20.000000" height="20.000000" fill="white" fill-opacity="0"/>
		</clipPath>
	</defs>
	<g clip-path="url(#clip8464_180388)">
		<path id="矢量 260" d="M7 1.66L12.99 1.66C14.86 1.66 15.79 1.66 16.51 2.02C17.14 2.34 17.65 2.85 17.97 3.48C18.33 4.19 18.33 5.13 18.33 7L18.33 13C18.33 14.86 18.33 15.8 17.97 16.51C17.65 17.14 17.14 17.65 16.51 17.96C15.79 18.33 14.86 18.33 12.99 18.33L7 18.33C5.13 18.33 4.2 18.33 3.48 17.96C2.85 17.65 2.34 17.14 2.02 16.51C1.66 15.8 1.66 14.86 1.66 13L1.66 7C1.66 5.13 1.66 4.19 2.02 3.48C2.34 2.85 2.85 2.34 3.48 2.02C4.2 1.66 5.13 1.66 7 1.66Z" fill="#8C929E" fill-opacity="1.000000" fill-rule="evenodd"/>
		<path id="矢量 322" d="M8.75 3.33L11.25 3.33C12.4 3.33 13.33 4.26 13.33 5.41L13.33 6.66L14.58 6.66C15.73 6.66 16.66 7.59 16.66 8.75L16.66 11.24C16.66 12.39 15.72 13.32 14.57 13.32L13.33 13.32L13.33 14.58C13.33 15.73 12.4 16.66 11.25 16.66L8.75 16.66C7.59 16.66 6.66 15.73 6.66 14.58L6.66 13.33L5.41 13.33C4.26 13.33 3.33 12.4 3.33 11.25L3.33 8.75C3.33 7.59 4.26 6.66 5.41 6.66L6.66 6.66L6.66 5.41C6.66 4.26 7.59 3.33 8.75 3.33Z" fill="#FFFFFF" fill-opacity="1.000000" fill-rule="evenodd"/>
		<path id="矢量 320" d="M7.08 6.66L7.08 5.41C7.08 4.49 7.82 3.75 8.75 3.75L11.25 3.75C12.17 3.75 12.91 4.49 12.91 5.41L12.91 8.33C12.91 9.25 12.17 10 11.25 10L8.75 10C7.59 10 6.66 10.93 6.66 12.08L6.66 12.91L5.41 12.91C4.49 12.91 3.75 12.17 3.75 11.25L3.75 8.75C3.75 7.82 4.49 7.08 5.41 7.08L9.79 7.08L9.79 6.66L7.08 6.66ZM8.54 4.58C8.19 4.58 7.91 4.86 7.91 5.2C7.91 5.55 8.19 5.83 8.54 5.83C8.88 5.83 9.16 5.55 9.16 5.2C9.16 4.86 8.88 4.58 8.54 4.58Z" fill="#13A3F7" fill-opacity="1.000000" fill-rule="evenodd"/>
		<path id="矢量 321" d="M12.91 13.33L12.91 14.58C12.91 15.5 12.17 16.25 11.25 16.25L8.75 16.25C7.82 16.25 7.08 15.5 7.08 14.58L7.08 12.08C7.08 11.16 7.82 10.41 8.75 10.41L11.25 10.41C12.4 10.41 13.33 9.48 13.33 8.33L13.33 7.08L14.58 7.08C15.5 7.08 16.25 7.82 16.25 8.75L16.25 11.25C16.25 12.17 15.5 12.91 14.58 12.91L10.62 12.91L10.62 13.33L12.91 13.33ZM11.45 14.58C11.11 14.58 10.83 14.86 10.83 15.2C10.83 15.55 11.11 15.83 11.45 15.83C11.8 15.83 12.08 15.55 12.08 15.2C12.08 14.86 11.8 14.58 11.45 14.58Z" fill="#F0BE35" fill-opacity="1.000000" fill-rule="evenodd"/>
	</g>
</svg>
