<svg width="20.000000" height="20.000000" viewBox="0 0 20 20" fill="none" xmlns="http://www.w3.org/2000/svg" xmlns:xlink="http://www.w3.org/1999/xlink">
	<desc>
			Created with Pixso.
	</desc>
	<defs>
		<clipPath id="clip7826_153849">
			<rect id="24px/文件类型/R" width="20.000000" height="20.000000" fill="white" fill-opacity="0"/>
		</clipPath>
	</defs>
	<rect id="24px/文件类型/R" width="20.000000" height="20.000000" fill="#000000" fill-opacity="0"/>
	<g clip-path="url(#clip7826_153849)">
		<path id="矢量 352" d="M7 1.66L12.99 1.66C14.86 1.66 15.79 1.66 16.51 2.03C17.14 2.35 17.65 2.85 17.97 3.48C18.33 4.2 18.33 5.13 18.33 7L18.33 13C18.33 14.86 18.33 15.8 17.97 16.51C17.65 17.14 17.14 17.65 16.51 17.97C15.79 18.33 14.86 18.33 12.99 18.33L7 18.33C5.13 18.33 4.2 18.33 3.48 17.97C2.85 17.65 2.34 17.14 2.02 16.51C1.66 15.8 1.66 14.86 1.66 13L1.66 7C1.66 5.13 1.66 4.2 2.02 3.48C2.34 2.85 2.85 2.35 3.48 2.03C4.2 1.66 5.13 1.66 7 1.66Z" fill="#226BFF" fill-opacity="1.000000" fill-rule="evenodd"/>
		<path id="矢量 359" d="M7.07 15.41L7.07 4.58C7.07 4.48 7.09 4.39 7.12 4.31C7.16 4.22 7.21 4.15 7.28 4.08C7.35 4.01 7.42 3.96 7.51 3.92C7.59 3.89 7.68 3.87 7.78 3.87L9.82 3.87C10.7 3.87 11.39 4.09 11.88 4.52C11.96 4.59 12.03 4.67 12.1 4.74C12.61 5.33 12.86 6.22 12.86 7.41C12.86 8.13 12.75 8.74 12.53 9.24C12.5 9.3 12.47 9.36 12.44 9.42C12.21 9.83 11.86 10.16 11.38 10.43L11.29 10.48L12.88 15.18C12.9 15.25 12.92 15.32 12.92 15.38C12.92 15.43 12.92 15.48 12.91 15.52C12.9 15.57 12.89 15.62 12.87 15.66C12.85 15.72 12.82 15.77 12.79 15.82C12.75 15.87 12.71 15.92 12.66 15.96C12.62 15.99 12.58 16.02 12.54 16.04C12.5 16.06 12.46 16.08 12.41 16.09C12.35 16.11 12.28 16.12 12.21 16.12L12.09 16.12C12.01 16.12 11.93 16.11 11.86 16.09C11.79 16.06 11.73 16.03 11.67 15.98C11.6 15.94 11.55 15.88 11.51 15.82C11.47 15.76 11.43 15.7 11.41 15.62L9.9 10.78L8.61 10.78L8.61 15.41C8.61 15.51 8.59 15.6 8.56 15.68C8.52 15.77 8.47 15.84 8.4 15.91C8.33 15.98 8.26 16.03 8.17 16.07C8.09 16.1 8 16.12 7.9 16.12L7.78 16.12C7.68 16.12 7.59 16.1 7.51 16.07C7.42 16.03 7.35 15.98 7.28 15.91C7.21 15.84 7.16 15.77 7.12 15.68C7.09 15.6 7.07 15.51 7.07 15.41ZM8.61 5.3L8.61 9.45L9.75 9.45C10.09 9.45 10.36 9.4 10.56 9.31C10.71 9.24 10.83 9.15 10.93 9.04C10.97 8.99 11.02 8.94 11.05 8.88C11.15 8.7 11.23 8.49 11.26 8.23C11.3 7.98 11.32 7.7 11.32 7.38C11.32 7.06 11.3 6.77 11.26 6.53C11.23 6.27 11.15 6.05 11.04 5.86C11.01 5.82 10.98 5.78 10.96 5.75C10.7 5.45 10.27 5.3 9.66 5.3L8.61 5.3Z" fill="#FFFFFF" fill-opacity="1.000000" fill-rule="evenodd"/>
		<path id="矢量 359" d="M7.07 4.58C7.07 4.48 7.09 4.39 7.12 4.31C7.16 4.22 7.21 4.15 7.28 4.08C7.35 4.01 7.42 3.96 7.51 3.92C7.59 3.89 7.68 3.87 7.78 3.87L9.82 3.87C10.7 3.87 11.39 4.09 11.88 4.52C11.96 4.59 12.03 4.67 12.1 4.74C12.61 5.33 12.86 6.22 12.86 7.41C12.86 8.13 12.75 8.74 12.53 9.24C12.5 9.3 12.47 9.36 12.44 9.42C12.21 9.83 11.86 10.16 11.38 10.43L11.29 10.48L12.88 15.18C12.9 15.25 12.92 15.32 12.92 15.38C12.92 15.43 12.92 15.48 12.91 15.52C12.9 15.57 12.89 15.62 12.87 15.66C12.85 15.72 12.82 15.77 12.79 15.82C12.75 15.87 12.71 15.92 12.66 15.96C12.62 15.99 12.58 16.02 12.54 16.04C12.5 16.06 12.46 16.08 12.41 16.09C12.35 16.11 12.28 16.12 12.21 16.12L12.09 16.12C12.01 16.12 11.93 16.11 11.86 16.09C11.79 16.06 11.73 16.03 11.67 15.98C11.6 15.94 11.55 15.88 11.51 15.82C11.47 15.76 11.43 15.7 11.41 15.62L9.9 10.78L8.61 10.78L8.61 15.41C8.61 15.51 8.59 15.6 8.56 15.68C8.52 15.77 8.47 15.84 8.4 15.91C8.33 15.98 8.26 16.03 8.17 16.07C8.09 16.1 8 16.12 7.9 16.12L7.78 16.12C7.68 16.12 7.59 16.1 7.51 16.07C7.42 16.03 7.35 15.98 7.28 15.91C7.21 15.84 7.16 15.77 7.12 15.68C7.09 15.6 7.07 15.51 7.07 15.41L7.07 4.58ZM8.61 9.45L9.75 9.45C10.09 9.45 10.36 9.4 10.56 9.31C10.71 9.24 10.83 9.15 10.93 9.04C10.97 8.99 11.02 8.94 11.05 8.88C11.15 8.7 11.23 8.49 11.26 8.23C11.3 7.98 11.32 7.7 11.32 7.38C11.32 7.06 11.3 6.77 11.26 6.53C11.23 6.27 11.15 6.05 11.04 5.86C11.01 5.82 10.98 5.78 10.96 5.75C10.7 5.45 10.27 5.3 9.66 5.3L8.61 5.3L8.61 9.45Z" stroke="#317AF7" stroke-opacity="1.000000" stroke-width="0.000000"/>
	</g>
</svg>
