<svg width="20.000000" height="20.000000" viewBox="0 0 20 20" fill="none" xmlns="http://www.w3.org/2000/svg" xmlns:xlink="http://www.w3.org/1999/xlink">
	<desc>
			Created with Pixso.
	</desc>
	<defs>
		<clipPath id="clip7051_154859">
			<rect id="24px/文件类型(树结构)/rust" width="20.000000" height="20.000000" fill="white" fill-opacity="0"/>
		</clipPath>
	</defs>
	<g clip-path="url(#clip7051_154859)">
		<path id="矢量 342" d="M7 1.66L12.99 1.66C14.86 1.66 15.79 1.66 16.51 2.03C17.14 2.35 17.65 2.85 17.97 3.48C18.33 4.2 18.33 5.13 18.33 7L18.33 13C18.33 14.86 18.33 15.8 17.97 16.51C17.65 17.14 17.14 17.65 16.51 17.97C15.79 18.33 14.86 18.33 12.99 18.33L7 18.33C5.13 18.33 4.2 18.33 3.48 17.97C2.85 17.65 2.34 17.14 2.02 16.51C1.66 15.8 1.66 14.86 1.66 13L1.66 7C1.66 5.13 1.66 4.2 2.02 3.48C2.34 2.85 2.85 2.35 3.48 2.03C4.2 1.66 5.13 1.66 7 1.66Z" fill="#FC9939" fill-opacity="1.000000" fill-rule="evenodd"/>
		<path id="矢量 268" d="M4.64 5.44L4.64 14.53C4.64 14.62 4.65 14.7 4.69 14.78C4.72 14.86 4.77 14.93 4.83 14.99C4.9 15.06 4.97 15.1 5.04 15.14C5.12 15.17 5.21 15.18 5.3 15.18C5.39 15.18 5.47 15.17 5.55 15.14C5.63 15.1 5.7 15.06 5.76 14.99C5.83 14.93 5.88 14.86 5.91 14.78C5.94 14.7 5.96 14.62 5.96 14.53L5.96 10.63L7.05 10.63L8.33 14.72C8.36 14.79 8.39 14.85 8.43 14.91C8.47 14.97 8.51 15.01 8.57 15.06C8.63 15.1 8.69 15.13 8.76 15.15C8.82 15.17 8.89 15.18 8.96 15.18C9.03 15.18 9.09 15.18 9.15 15.16C9.19 15.15 9.23 15.13 9.27 15.11C9.31 15.09 9.35 15.06 9.38 15.03C9.42 15 9.46 14.96 9.5 14.91C9.53 14.86 9.56 14.81 9.58 14.76C9.59 14.72 9.6 14.68 9.61 14.63C9.62 14.59 9.62 14.54 9.62 14.5C9.62 14.44 9.61 14.38 9.58 14.32L8.32 10.32C8.73 10.1 9.04 9.81 9.23 9.46C9.26 9.41 9.28 9.36 9.31 9.31C9.5 8.88 9.59 8.36 9.59 7.75C9.59 6.73 9.37 5.96 8.94 5.46C8.88 5.39 8.82 5.33 8.75 5.27C8.33 4.9 7.74 4.71 6.99 4.71L5.37 4.71C5.31 4.71 5.26 4.72 5.2 4.73C5.16 4.74 5.12 4.75 5.08 4.77C5.04 4.79 5.01 4.81 4.97 4.83C4.93 4.86 4.89 4.89 4.85 4.93C4.82 4.96 4.78 5 4.76 5.04C4.73 5.08 4.71 5.12 4.7 5.16C4.68 5.2 4.67 5.24 4.66 5.28C4.64 5.33 4.64 5.39 4.64 5.44ZM15.35 12.89L15.35 5.38C15.35 5.28 15.34 5.2 15.3 5.12C15.27 5.04 15.22 4.97 15.16 4.91C15.09 4.84 15.02 4.79 14.94 4.76C14.87 4.73 14.78 4.71 14.69 4.71C14.6 4.71 14.51 4.73 14.44 4.76C14.36 4.79 14.29 4.84 14.22 4.91C14.16 4.97 14.11 5.04 14.08 5.12C14.04 5.2 14.03 5.28 14.03 5.38L14.03 12.74C14.03 13.15 13.93 13.45 13.73 13.65C13.65 13.73 13.56 13.8 13.46 13.85C13.32 13.92 13.16 13.95 12.98 13.95C12.81 13.95 12.65 13.92 12.51 13.85C12.41 13.8 12.32 13.74 12.23 13.65C12.03 13.45 11.93 13.15 11.93 12.74L11.93 5.37C11.93 5.28 11.91 5.2 11.88 5.12C11.85 5.04 11.8 4.97 11.74 4.91C11.67 4.84 11.6 4.79 11.52 4.76C11.45 4.73 11.36 4.71 11.27 4.71C11.18 4.71 11.1 4.73 11.02 4.76C10.94 4.79 10.87 4.84 10.8 4.91C10.74 4.97 10.69 5.04 10.66 5.12C10.63 5.2 10.61 5.28 10.61 5.37L10.61 12.89C10.61 13.22 10.68 13.54 10.8 13.82C10.85 13.95 10.92 14.07 11 14.19C11.09 14.32 11.19 14.45 11.31 14.57C11.46 14.71 11.61 14.84 11.78 14.94C11.87 15 11.97 15.05 12.07 15.09C12.12 15.11 12.18 15.14 12.23 15.15C12.47 15.24 12.72 15.28 12.98 15.28C13.25 15.28 13.5 15.23 13.74 15.15C13.8 15.13 13.85 15.11 13.9 15.09C14.06 15.02 14.2 14.94 14.34 14.84C14.46 14.76 14.56 14.67 14.66 14.57C14.79 14.44 14.9 14.3 15 14.15C15.07 14.04 15.12 13.93 15.17 13.82C15.29 13.53 15.35 13.23 15.35 12.89ZM5.96 9.48L5.96 5.95L6.86 5.95C7.37 5.95 7.74 6.07 7.96 6.33C7.98 6.35 8.01 6.39 8.03 6.42C8.12 6.58 8.19 6.77 8.22 6.99C8.25 7.2 8.27 7.44 8.27 7.72C8.27 7.99 8.25 8.23 8.22 8.44C8.19 8.66 8.13 8.85 8.04 9C8.01 9.05 7.97 9.09 7.94 9.14C7.85 9.23 7.74 9.3 7.62 9.36C7.45 9.44 7.22 9.48 6.93 9.48L5.96 9.48Z" fill="#FFFFFF" fill-opacity="1.000000" fill-rule="evenodd"/>
	</g>
</svg>
