<svg width="20.000000" height="20.000000" viewBox="0 0 20 20" fill="none" xmlns="http://www.w3.org/2000/svg" xmlns:xlink="http://www.w3.org/1999/xlink">
	<desc>
			Created with Pixso.
	</desc>
	<defs>
		<clipPath id="clip1_478">
			<rect width="20.000000" height="20.000000" fill="white" fill-opacity="0"/>
		</clipPath>
	</defs>
	<g clip-path="url(#clip1_478)">
		<path d="M7 1.66L12.99 1.66C14.86 1.66 15.8 1.66 16.51 2.02C17.14 2.34 17.65 2.85 17.97 3.48C18.33 4.19 18.33 5.13 18.33 7L18.33 13C18.33 14.86 18.33 15.8 17.97 16.51C17.65 17.14 17.14 17.65 16.51 17.96C15.8 18.33 14.86 18.33 12.99 18.33L7 18.33C5.13 18.33 4.2 18.33 3.48 17.96C2.85 17.65 2.34 17.14 2.02 16.51C1.66 15.8 1.66 14.86 1.66 13L1.66 7C1.66 5.13 1.66 4.19 2.02 3.48C2.34 2.85 2.85 2.34 3.48 2.02C4.2 1.66 5.13 1.66 7 1.66Z" fill="#28B4B4" fill-opacity="1.000000" fill-rule="evenodd"/>
		<path d="M8.14297 4.03925L8.14297 4.66736C8.00781 4.70288 7.81873 4.76532 7.70001 4.82196C7.43408 4.94794 7.20773 5.1106 7.02103 5.31C6.98523 5.34833 6.94962 5.38947 6.9169 5.43005C6.70218 5.68292 6.54095 5.98645 6.43323 6.3407C6.32468 6.6958 6.27042 7.07147 6.27042 7.46777C6.27042 8.13086 6.38098 8.68237 6.60211 9.12225C6.81973 9.55273 7.2533 9.89978 7.9028 10.1635L9.01013 10.619C9.20703 10.7023 9.36523 10.7808 9.4848 10.8546C9.55743 10.8979 9.62216 10.9489 9.67902 11.0075C9.72119 11.051 9.76251 11.1047 9.79599 11.1566C9.86041 11.2775 9.90305 11.4344 9.92392 11.6274C9.94391 11.8124 9.95389 12.0486 9.95389 12.3361C9.95389 12.5809 9.94641 12.8026 9.93149 13.0013C9.91565 13.2117 9.86383 13.3926 9.77603 13.544C9.74176 13.6051 9.70154 13.6606 9.65536 13.7108C9.58472 13.7874 9.50012 13.8511 9.40158 13.902C9.24399 13.9847 9.02643 14.0261 8.74893 14.0261C8.39536 14.0261 8.12521 13.9379 7.93851 13.7614C7.90317 13.728 7.87082 13.6914 7.84146 13.6516C7.73987 13.5126 7.66818 13.3409 7.62643 13.1363C7.59418 12.9786 7.53387 12.8426 7.44559 12.7281C7.42114 12.6964 7.39453 12.6664 7.36575 12.638C7.28375 12.5571 7.19373 12.5002 7.09567 12.4675C7.02911 12.4453 6.95886 12.4342 6.88492 12.4342C6.83676 12.4342 6.78958 12.439 6.74338 12.4485C6.69958 12.4576 6.65668 12.4709 6.61465 12.4885C6.5636 12.5099 6.43768 12.6042 6.39429 12.6361C6.34958 12.6809 6.28098 12.7992 6.25223 12.8526C6.23755 12.8905 6.2269 12.9291 6.22028 12.9684C6.21219 13.0164 6.21017 13.0655 6.2142 13.1156C6.23901 13.4253 6.29855 13.6874 6.39276 13.9019C6.48444 14.1101 6.59875 14.3004 6.73572 14.4726C6.79584 14.5482 6.92963 14.6863 6.99713 14.7537C7.20828 14.9462 7.45438 15.1005 7.73538 15.2165C7.87207 15.2679 8.05017 15.3207 8.14297 15.3436L8.14297 15.9608C8.14297 16.0468 8.15817 16.1265 8.18857 16.1998C8.21896 16.2732 8.26453 16.3402 8.32529 16.401C8.38608 16.4618 8.45316 16.5074 8.52652 16.5378C8.59985 16.5682 8.6795 16.5834 8.76541 16.5834C8.8515 16.5834 8.93127 16.5681 9.00473 16.5377C9.07803 16.5073 9.14502 16.4617 9.20572 16.401C9.26648 16.3403 9.31207 16.2732 9.34244 16.1998C9.37286 16.1265 9.38806 16.0468 9.38806 15.9608L9.45471 15.3414C9.64398 15.3027 9.81647 15.2469 9.97217 15.1741C10.2464 15.0449 10.4769 14.8763 10.6637 14.6685C10.7036 14.624 10.7416 14.5777 10.7775 14.5296C10.9727 14.2654 11.1135 13.9452 11.1999 13.5687C11.2897 13.185 11.3347 12.7692 11.3347 12.3212C11.3347 11.9299 11.3152 11.5817 11.2761 11.2767C11.2378 10.9774 11.164 10.7109 11.0545 10.4774C11.0281 10.4263 10.9995 10.3766 10.9685 10.3284C10.8638 10.1656 10.7332 10.0197 10.5764 9.89038C10.371 9.71838 10.1011 9.5686 9.76682 9.4411L8.58484 8.97046C8.37701 8.8869 8.20975 8.80286 8.0864 8.72064C7.97113 8.63965 7.86258 8.51007 7.79807 8.39948C7.73123 8.27875 7.68982 8.14264 7.67383 7.99115C7.65875 7.84821 7.65118 7.66882 7.65118 7.453C7.65118 7.26587 7.66641 7.08698 7.69684 6.91632C7.73096 6.73816 7.79184 6.57654 7.87595 6.43719C7.90552 6.3924 7.93805 6.35022 7.97363 6.31085C8.04422 6.2326 8.12662 6.16504 8.22083 6.10809C8.36728 6.01862 8.55438 5.97394 8.7821 5.97394C9.0882 5.97394 9.35724 6.07135 9.53806 6.22186C9.59552 6.27374 9.64584 6.33356 9.68909 6.40118C9.78333 6.54535 9.85162 6.71875 9.89395 6.92126C9.92581 7.07373 9.98422 7.20612 10.0691 7.31854C10.0964 7.35461 10.1264 7.38867 10.1591 7.42059C10.2436 7.50305 10.3361 7.56055 10.4366 7.59314C10.5024 7.61444 10.5716 7.62512 10.6443 7.62512C10.6857 7.62512 10.7264 7.62152 10.7665 7.61426C10.815 7.60553 10.8626 7.59149 10.9092 7.57214C10.9499 7.55524 10.9883 7.53497 11.0246 7.51135C11.0619 7.48694 11.097 7.45892 11.1296 7.42737C11.2056 7.35388 11.2604 7.27246 11.2942 7.18304C11.3212 7.11151 11.3347 7.03491 11.3347 6.95325C11.3347 6.72601 11.3033 6.50879 11.2404 6.30157C11.1356 5.95618 10.9432 5.63647 10.6632 5.34259C10.5516 5.23718 10.4272 5.13745 10.29 5.04333C10.1432 4.94257 10.0008 4.86176 9.86292 4.80078C9.73224 4.742 9.53125 4.68036 9.38806 4.64636L9.38806 4.03925C9.38806 3.95325 9.37286 3.87354 9.34244 3.80017C9.31204 3.72687 9.26648 3.65979 9.20572 3.59906C9.14502 3.53833 9.078 3.4928 9.00473 3.4624C8.93127 3.43195 8.8515 3.41669 8.76541 3.41669C8.6795 3.41669 8.59985 3.43188 8.52652 3.46222C8.45316 3.49261 8.38608 3.53821 8.32529 3.59906C8.26453 3.65979 8.21896 3.72687 8.18857 3.80023C8.15817 3.8736 8.14297 3.95325 8.14297 4.03925ZM14.7546 14.0291L12.4017 14.0291C12.3049 14.0291 12.2152 14.0462 12.1326 14.0804C12.05 14.1146 11.9745 14.166 11.906 14.2344C11.8376 14.3029 11.7863 14.3784 11.752 14.461C11.7178 14.5436 11.7007 14.6333 11.7007 14.73C11.7007 14.8268 11.7178 14.9165 11.752 14.9991C11.7863 15.0817 11.8376 15.1572 11.906 15.2257C11.9745 15.2941 12.05 15.3455 12.1326 15.3797L12.1326 15.3797C12.2153 15.4139 12.3049 15.431 12.4017 15.431L14.7546 15.431C14.8513 15.431 14.941 15.4139 15.0236 15.3797C15.1063 15.3455 15.1818 15.2941 15.2502 15.2257C15.3187 15.1572 15.3701 15.0817 15.4042 14.9991C15.4385 14.9165 15.4556 14.8268 15.4556 14.73C15.4556 14.6333 15.4385 14.5436 15.4042 14.461C15.37 14.3784 15.3187 14.3029 15.2502 14.2344C15.1818 14.166 15.1063 14.1146 15.0236 14.0804C14.941 14.0462 14.8514 14.0291 14.7546 14.0291Z" clip-rule="evenodd" fill="#FFFFFF" fill-opacity="1.000000" fill-rule="evenodd"/>
	</g>
</svg>
