<svg width="20.000000" height="20.000000" viewBox="0 0 20 20" fill="none" xmlns="http://www.w3.org/2000/svg" xmlns:xlink="http://www.w3.org/1999/xlink">
	<desc>
			Created with Pixso.
	</desc>
	<defs>
		<clipPath id="clip7051_154887">
			<rect id="24px/文件类型(树结构)/so" width="20.000000" height="20.000000" fill="white" fill-opacity="0"/>
		</clipPath>
	</defs>
	<g clip-path="url(#clip7051_154887)">
		<path id="矢量 339" d="M7 1.66L12.99 1.66C14.86 1.66 15.79 1.66 16.51 2.02C17.14 2.34 17.65 2.85 17.97 3.48C18.33 4.19 18.33 5.13 18.33 7L18.33 13C18.33 14.86 18.33 15.8 17.97 16.51C17.65 17.14 17.14 17.65 16.51 17.96C15.79 18.33 14.86 18.33 12.99 18.33L7 18.33C5.13 18.33 4.2 18.33 3.48 17.96C2.85 17.65 2.34 17.14 2.02 16.51C1.66 15.8 1.66 14.86 1.66 13L1.66 7C1.66 5.13 1.66 4.19 2.02 3.48C2.34 2.85 2.85 2.34 3.48 2.02C4.2 1.66 5.13 1.66 7 1.66Z" fill="#6B60FF" fill-opacity="1.000000" fill-rule="evenodd"/>
		<path id="矢量 254" d="M8.57 7.59C8.63 7.61 8.71 7.62 8.78 7.62C8.87 7.62 8.95 7.61 9.03 7.58C9.1 7.55 9.17 7.5 9.24 7.44C9.3 7.37 9.35 7.3 9.38 7.23C9.41 7.15 9.42 7.07 9.42 6.98C9.42 6.76 9.39 6.55 9.33 6.35C9.23 6.01 9.01 5.66 8.74 5.37C8.52 5.17 8.27 5 7.98 4.87C7.68 4.74 7.35 4.67 6.98 4.67C6.55 4.67 6.17 4.74 5.86 4.89C5.59 5.02 5.37 5.18 5.19 5.38C5.15 5.42 5.12 5.45 5.09 5.49C4.88 5.74 4.72 6.03 4.62 6.38C4.51 6.73 4.46 7.1 4.46 7.49C4.46 8.14 4.57 8.68 4.78 9.12C5 9.54 5.42 9.88 6.06 10.14L7.16 10.59C7.35 10.67 7.51 10.75 7.63 10.82C7.7 10.87 7.77 10.92 7.83 10.98C7.87 11.02 7.91 11.08 7.94 11.13C8.01 11.25 8.05 11.41 8.07 11.6C8.09 11.79 8.1 12.02 8.1 12.31C8.1 12.55 8.09 12.77 8.08 12.97C8.06 13.18 8.01 13.36 7.92 13.51C7.89 13.58 7.84 13.64 7.79 13.69C7.72 13.76 7.64 13.82 7.54 13.87C7.39 13.96 7.17 14 6.89 14C6.54 14 6.26 13.91 6.08 13.74C6.04 13.7 6 13.66 5.97 13.62C5.87 13.48 5.8 13.31 5.76 13.1C5.72 12.95 5.67 12.82 5.58 12.7C5.56 12.67 5.53 12.65 5.51 12.62C5.43 12.54 5.34 12.49 5.24 12.46C5.18 12.43 5.11 12.42 5.04 12.42C5 12.42 4.95 12.43 4.91 12.44C4.87 12.45 4.83 12.46 4.79 12.48C4.74 12.5 4.62 12.59 4.58 12.62C4.53 12.66 4.47 12.77 4.44 12.82C4.43 12.86 4.41 12.9 4.41 12.93C4.4 12.98 4.4 13.03 4.4 13.08C4.43 13.38 4.49 13.64 4.58 13.85C4.67 14.06 4.78 14.25 4.92 14.42C4.98 14.49 5.11 14.62 5.18 14.69C5.38 14.87 5.66 15.04 5.93 15.15C6.23 15.27 6.55 15.32 6.89 15.32C7.36 15.32 7.76 15.25 8.09 15.09C8.36 14.97 8.59 14.8 8.77 14.59C8.81 14.55 8.84 14.51 8.88 14.46C9.07 14.2 9.21 13.89 9.29 13.52C9.38 13.14 9.42 12.73 9.42 12.29C9.42 11.91 9.41 11.56 9.37 11.26C9.33 10.97 9.26 10.71 9.15 10.48C9.13 10.43 9.1 10.39 9.07 10.34C8.97 10.18 8.84 10.03 8.68 9.9C8.48 9.73 8.22 9.59 7.89 9.46L6.72 9C6.51 8.91 6.34 8.83 6.22 8.75C6.11 8.67 5.99 8.53 5.93 8.42C5.86 8.3 5.82 8.16 5.8 8.01C5.79 7.87 5.78 7.69 5.78 7.48C5.78 7.29 5.8 7.11 5.83 6.94C5.86 6.76 5.92 6.6 6.01 6.46C6.04 6.41 6.07 6.37 6.11 6.32C6.18 6.25 6.26 6.18 6.35 6.13C6.5 6.04 6.69 5.99 6.92 5.99C7.23 5.99 7.48 6.07 7.66 6.22C7.73 6.28 7.79 6.34 7.84 6.42C7.93 6.57 8 6.74 8.04 6.95C8.07 7.09 8.13 7.22 8.21 7.33C8.24 7.37 8.27 7.4 8.3 7.43C8.38 7.51 8.47 7.56 8.57 7.59ZM11.47 5.29C11.23 5.5 11.04 5.76 10.9 6.08C10.76 6.4 10.68 6.76 10.68 7.18L10.68 12.81C10.68 13.25 10.76 13.62 10.9 13.92C11.04 14.22 11.25 14.49 11.47 14.69C11.61 14.81 11.76 14.92 11.92 15.01C12.03 15.07 12.14 15.12 12.26 15.16C12.52 15.26 12.78 15.31 13.04 15.32C13.08 15.32 13.11 15.32 13.14 15.32C13.18 15.32 13.22 15.32 13.25 15.32C13.51 15.31 13.77 15.26 14.03 15.16C14.12 15.13 14.2 15.1 14.28 15.05C14.48 14.96 14.66 14.83 14.83 14.68C15.06 14.48 15.25 14.23 15.39 13.92C15.53 13.62 15.61 13.25 15.61 12.81L15.61 7.18C15.61 6.76 15.53 6.4 15.39 6.08C15.25 5.76 15.06 5.5 14.83 5.29C14.69 5.17 14.54 5.07 14.38 4.98C14.27 4.92 14.15 4.87 14.03 4.83C13.77 4.73 13.51 4.68 13.24 4.67C13.21 4.67 13.18 4.67 13.14 4.67C13.11 4.67 13.07 4.67 13.04 4.67C12.78 4.68 12.52 4.73 12.26 4.83C12.09 4.89 11.94 4.96 11.8 5.05C11.68 5.12 11.57 5.2 11.47 5.29ZM12.35 13.71C12.32 13.68 12.29 13.66 12.27 13.63C12.09 13.43 12.01 13.16 12.01 12.81L12.01 7.18C12.01 6.82 12.17 6.47 12.35 6.28C12.45 6.19 12.56 6.13 12.67 6.08C12.82 6.02 12.97 5.99 13.14 5.99C13.32 5.99 13.48 6.02 13.63 6.09C13.74 6.13 13.93 6.28 14.02 6.36C14.2 6.55 14.28 6.82 14.28 7.18L14.28 12.81C14.28 13.16 14.2 13.43 14.02 13.63C14 13.66 13.97 13.68 13.94 13.71C13.84 13.79 13.74 13.86 13.63 13.9C13.48 13.97 13.32 14 13.14 14C12.97 14 12.82 13.97 12.67 13.91C12.56 13.86 12.45 13.8 12.35 13.71Z" fill="#FFFFFF" fill-opacity="1.000000" fill-rule="evenodd"/>
	</g>
</svg>
