<svg width="20.000000" height="20.000000" viewBox="0 0 20 20" fill="none" xmlns="http://www.w3.org/2000/svg" xmlns:xlink="http://www.w3.org/1999/xlink">
	<desc>
			Created with Pixso.
	</desc>
	<defs>
		<clipPath id="clip90_22143">
			<rect id="24px/文件类型(树结构)/svg" width="20.000000" height="20.000000" fill="white" fill-opacity="0"/>
		</clipPath>
	</defs>
	<g clip-path="url(#clip90_22143)">
		<path id="矢量 346" d="M7 1.66L13 1.66C14.86 1.66 15.79 1.66 16.51 2.03C17.14 2.34 17.65 2.85 17.96 3.48C18.33 4.19 18.33 5.13 18.33 7L18.33 13C18.33 14.86 18.33 15.8 17.96 16.51C17.65 17.14 17.14 17.65 16.51 17.96C15.79 18.33 14.86 18.33 13 18.33L7 18.33C5.13 18.33 4.19 18.33 3.48 17.96C2.85 17.65 2.34 17.14 2.02 16.51C1.66 15.8 1.66 14.86 1.66 13L1.66 7C1.66 5.13 1.66 4.19 2.02 3.48C2.34 2.85 2.85 2.34 3.48 2.03C4.19 1.66 5.13 1.66 7 1.66Z" fill="#000000" fill-opacity="0.400000" fill-rule="evenodd"/>
		<path id="矢量 354" d="M6.86 8.11L6.84 8.11C6.49 8.11 6.23 7.82 6.15 7.47C6.12 7.33 6.08 7.19 6 7.07C5.86 6.85 5.63 6.75 5.31 6.75Q5.04 6.75 4.88 6.85C4.77 6.91 4.68 6.99 4.62 7.1Q4.52 7.26 4.48 7.47C4.45 7.6 4.44 7.75 4.44 7.9C4.44 8.07 4.45 8.22 4.46 8.33C4.47 8.45 4.5 8.55 4.55 8.64C4.6 8.74 4.68 8.82 4.77 8.88C4.87 8.95 5 9.02 5.17 9.08L6.14 9.47C6.42 9.58 6.65 9.71 6.83 9.85C7 10 7.14 10.16 7.24 10.36C7.33 10.56 7.4 10.78 7.43 11.04C7.46 11.29 7.48 11.58 7.48 11.91C7.48 12.28 7.44 12.63 7.37 12.95C7.29 13.27 7.17 13.54 7.01 13.77C6.83 14 6.6 14.19 6.32 14.32C6.03 14.45 5.69 14.52 5.28 14.52C4.97 14.52 4.68 14.47 4.42 14.36C4.15 14.25 3.92 14.1 3.73 13.91C3.54 13.72 3.39 13.49 3.27 13.24C3.18 13.03 3.14 12.8 3.12 12.57C3.09 12.22 3.39 11.93 3.74 11.93C4.09 11.93 4.35 12.22 4.42 12.57C4.45 12.71 4.5 12.85 4.59 12.96C4.72 13.15 4.95 13.25 5.28 13.25C5.5 13.25 5.66 13.21 5.79 13.15C5.91 13.09 6 13 6.07 12.88C6.13 12.77 6.17 12.63 6.18 12.46C6.2 12.3 6.2 12.12 6.2 11.92C6.2 11.69 6.19 11.49 6.18 11.34C6.16 11.19 6.13 11.07 6.08 10.98C6.02 10.89 5.94 10.82 5.85 10.76C5.75 10.7 5.63 10.64 5.47 10.57L4.55 10.19C4 9.97 3.63 9.67 3.45 9.3Q3.17 8.74 3.17 7.91C3.17 7.57 3.21 7.26 3.3 6.96C3.39 6.66 3.53 6.4 3.72 6.18C3.89 5.97 4.11 5.79 4.38 5.66C4.66 5.53 4.98 5.47 5.35 5.47C5.67 5.47 5.96 5.53 6.22 5.65C6.49 5.76 6.71 5.92 6.9 6.11Q7.26 6.48 7.4 6.93Q7.48 7.19 7.48 7.48C7.48 7.83 7.2 8.11 6.86 8.11ZM12.79 6.7Q12.61 7.11 12.61 7.65L12.61 12.35Q12.61 12.91 12.79 13.31C12.92 13.57 13.09 13.79 13.29 13.97C13.5 14.15 13.72 14.29 13.98 14.38Q14.3 14.5 14.63 14.52Q14.69 14.52 14.75 14.52C15 14.52 15.26 14.48 15.51 14.38C15.77 14.29 16 14.15 16.21 13.97C16.41 13.79 16.57 13.57 16.69 13.31C16.82 13.04 16.88 12.72 16.88 12.35L16.88 10.38C16.88 9.92 16.51 9.54 16.05 9.54L15.16 9.54C14.85 9.54 14.6 9.8 14.6 10.11C14.6 10.42 14.85 10.67 15.16 10.67L15.61 10.67L15.61 12.35C15.61 12.65 15.52 12.88 15.35 13.03C15.18 13.17 14.98 13.25 14.75 13.25C14.51 13.25 14.31 13.17 14.14 13.03C13.97 12.88 13.88 12.65 13.88 12.35L13.88 7.65C13.88 7.34 13.97 7.11 14.14 6.96C14.31 6.82 14.51 6.75 14.75 6.75C14.98 6.75 15.18 6.82 15.35 6.96C15.49 7.09 15.56 7.26 15.59 7.46C15.64 7.81 15.89 8.09 16.25 8.09C16.6 8.09 16.9 7.81 16.87 7.46C16.85 7.19 16.8 6.93 16.69 6.7C16.57 6.42 16.41 6.19 16.21 6.01C16 5.83 15.77 5.7 15.51 5.61C15.26 5.52 15 5.47 14.75 5.47Q14.69 5.47 14.63 5.47Q14.3 5.49 13.98 5.61Q13.77 5.68 13.59 5.79Q13.44 5.88 13.29 6.01C13.09 6.19 12.92 6.42 12.79 6.7ZM12.18 6.33L10.63 13.89C10.56 14.21 10.28 14.44 9.95 14.44C9.62 14.44 9.34 14.21 9.27 13.89L7.73 6.33C7.65 5.92 7.96 5.55 8.37 5.55C8.69 5.55 8.96 5.78 9.02 6.09L9.94 11.76L9.96 11.76L10.9 6.09C10.95 5.78 11.22 5.55 11.54 5.55C11.95 5.55 12.26 5.92 12.18 6.33Z" fill="#FFFFFF" fill-opacity="1.000000" fill-rule="evenodd"/>
	</g>
</svg>
