<svg width="20.000000" height="20.000000" viewBox="0 0 20 20" fill="none" xmlns="http://www.w3.org/2000/svg" xmlns:xlink="http://www.w3.org/1999/xlink">
	<desc>
			Created with Pixso.
	</desc>
	<defs>
		<clipPath id="clip7051_154847">
			<rect id="24px/文件类型(树结构)/toml" width="20.000000" height="20.000000" fill="white" fill-opacity="0"/>
		</clipPath>
	</defs>
	<g clip-path="url(#clip7051_154847)">
		<path id="矢量 335" d="M7 1.66L12.99 1.66C14.86 1.66 15.79 1.66 16.51 2.02C17.14 2.34 17.65 2.85 17.97 3.48C18.33 4.19 18.33 5.13 18.33 7L18.33 13C18.33 14.86 18.33 15.8 17.97 16.51C17.65 17.14 17.14 17.65 16.51 17.96C15.79 18.33 14.86 18.33 12.99 18.33L7 18.33C5.13 18.33 4.2 18.33 3.48 17.96C2.85 17.65 2.34 17.14 2.02 16.51C1.66 15.8 1.66 14.86 1.66 13L1.66 7C1.66 5.13 1.66 4.19 2.02 3.48C2.34 2.85 2.85 2.34 3.48 2.02C4.2 1.66 5.13 1.66 7 1.66Z" fill="#FA8661" fill-opacity="1.000000" fill-rule="evenodd"/>
		<path id="矢量 336" d="M5.12 4.88L6.34 4.88C6.66 4.88 6.91 4.63 6.91 4.31C6.91 4 6.66 3.75 6.34 3.75L5.12 3.75C5.03 3.75 4.93 3.76 4.83 3.78C4.75 3.79 4.67 3.82 4.59 3.85C4.51 3.89 4.43 3.93 4.36 3.97C4.29 4.03 4.21 4.08 4.15 4.15C4.08 4.21 4.03 4.29 3.97 4.36C3.93 4.43 3.89 4.51 3.85 4.59C3.82 4.67 3.79 4.75 3.78 4.83C3.76 4.93 3.74 5.03 3.74 5.12L3.74 14.87C3.74 14.96 3.76 15.06 3.78 15.16C3.79 15.24 3.82 15.32 3.85 15.4C3.89 15.48 3.93 15.56 3.97 15.63C4.02 15.7 4.08 15.78 4.15 15.84C4.21 15.91 4.29 15.96 4.36 16.02C4.43 16.06 4.51 16.1 4.59 16.14C4.67 16.17 4.75 16.2 4.83 16.21C4.93 16.23 5.03 16.25 5.12 16.25L6.34 16.25C6.66 16.25 6.91 16 6.91 15.68C6.91 15.36 6.66 15.11 6.34 15.11L5.12 15.11C5.09 15.11 5.06 15.1 5.03 15.09C5 15.08 4.92 14.98 4.9 14.96C4.89 14.93 4.88 14.9 4.88 14.87L4.88 5.12C4.88 5.09 4.89 5.06 4.9 5.03C4.91 5 5.01 4.92 5.03 4.9C5.06 4.89 5.09 4.88 5.12 4.88ZM13.65 4.88L14.86 4.88C14.9 4.88 14.93 4.89 14.96 4.9C14.98 4.92 15.08 5 15.09 5.03C15.1 5.06 15.11 5.09 15.11 5.12L15.11 14.87C15.11 14.9 15.1 14.93 15.09 14.96C15.07 14.98 14.99 15.08 14.96 15.09C14.93 15.1 14.9 15.11 14.87 15.11L13.65 15.11C13.33 15.11 13.08 15.36 13.08 15.68C13.08 16 13.33 16.25 13.65 16.25L14.87 16.25C14.96 16.25 15.06 16.23 15.16 16.21C15.24 16.2 15.32 16.17 15.4 16.14C15.48 16.1 15.56 16.06 15.63 16.02C15.7 15.96 15.78 15.91 15.84 15.84C15.91 15.78 15.96 15.7 16.02 15.63C16.06 15.56 16.1 15.48 16.14 15.4C16.17 15.32 16.2 15.24 16.21 15.16C16.23 15.06 16.24 14.96 16.24 14.87L16.24 5.12C16.24 5.03 16.23 4.93 16.21 4.83C16.2 4.75 16.17 4.67 16.14 4.59C16.1 4.51 16.06 4.43 16.02 4.36C15.96 4.29 15.91 4.21 15.84 4.15C15.77 4.08 15.7 4.03 15.63 3.97C15.56 3.93 15.48 3.89 15.4 3.85C15.32 3.82 15.24 3.79 15.16 3.78C15.06 3.76 14.96 3.75 14.86 3.75L13.65 3.75C13.33 3.75 13.08 4 13.08 4.31C13.08 4.63 13.33 4.88 13.65 4.88ZM9.27 14.68L9.27 6.87L7.49 6.87C7.09 6.87 6.77 6.54 6.77 6.14C6.77 5.74 7.09 5.41 7.49 5.41L12.49 5.41C12.9 5.41 13.22 5.74 13.22 6.14C13.22 6.54 12.9 6.87 12.49 6.87L10.72 6.87L10.72 14.68C10.72 15.09 10.4 15.41 9.99 15.41C9.59 15.41 9.27 15.09 9.27 14.68Z" fill="#FFFFFF" fill-opacity="1.000000" fill-rule="evenodd"/>
	</g>
</svg>
