<svg width="20.000000" height="20.000000" viewBox="0 0 20 20" fill="none" xmlns="http://www.w3.org/2000/svg" xmlns:xlink="http://www.w3.org/1999/xlink">
	<desc>
			Created with Pixso.
	</desc>
	<defs>
		<clipPath id="clip9402_69376">
			<rect id="24px/ic_ide_arrow" rx="4.000000" width="20.000000" height="20.000000" fill="white" fill-opacity="0"/>
		</clipPath>
	</defs>
	<g clip-path="url(#clip9402_69376)">
		<path id="矢量 344" d="M7 1.66L13 1.66C14.86 1.66 15.79 1.66 16.51 2.03C17.14 2.34 17.65 2.85 17.97 3.48C18.33 4.19 18.33 5.13 18.33 7L18.33 13C18.33 14.86 18.33 15.8 17.97 16.51C17.65 17.14 17.14 17.65 16.51 17.96C15.79 18.33 14.86 18.33 13 18.33L7 18.33C5.13 18.33 4.19 18.33 3.48 17.96C2.85 17.65 2.34 17.14 2.02 16.51C1.66 15.8 1.66 14.86 1.66 13L1.66 7C1.66 5.13 1.66 4.19 2.02 3.48C2.34 2.85 2.85 2.34 3.48 2.03C4.19 1.66 5.13 1.66 7 1.66Z" fill="#0A59F7" fill-opacity="1.000000" fill-rule="evenodd"/>
		<path id="矢量 372" d="M14.68 6.44C14.95 6.44 15.17 6.51 15.33 6.65C15.39 6.7 15.44 6.76 15.48 6.83C15.57 6.95 15.63 7.11 15.66 7.29C15.69 7.42 15.75 7.53 15.82 7.63C15.84 7.66 15.87 7.69 15.9 7.72C15.97 7.79 16.05 7.84 16.14 7.87C16.19 7.89 16.25 7.9 16.32 7.9C16.36 7.9 16.41 7.89 16.45 7.88C16.49 7.87 16.52 7.86 16.55 7.85C16.6 7.83 16.7 7.75 16.74 7.72C16.8 7.66 16.84 7.6 16.86 7.52C16.88 7.46 16.89 7.39 16.88 7.31C16.81 6.69 16.6 6.19 16.3 5.88C16.11 5.69 15.88 5.55 15.63 5.43C15.36 5.31 15.06 5.25 14.73 5.25C14.34 5.25 14.01 5.32 13.73 5.45C13.5 5.56 13.29 5.71 13.13 5.89C13.1 5.92 13.08 5.95 13.05 5.98C12.86 6.21 12.72 6.47 12.62 6.78C12.53 7.09 12.48 7.42 12.48 7.77C12.48 8.35 12.58 8.83 12.77 9.22C12.96 9.6 13.34 9.9 13.91 10.13L14.88 10.53C15.06 10.6 15.2 10.67 15.3 10.74C15.37 10.78 15.43 10.83 15.48 10.88C15.51 10.92 15.55 10.96 15.58 11.01C15.64 11.12 15.67 11.25 15.69 11.42C15.71 11.59 15.72 11.8 15.72 12.05C15.72 12.26 15.71 12.46 15.7 12.64C15.69 12.82 15.64 12.98 15.56 13.12C15.53 13.17 15.49 13.23 15.45 13.27C15.39 13.34 15.31 13.39 15.23 13.43C15.09 13.51 14.9 13.55 14.65 13.55C14.34 13.55 14.1 13.47 13.93 13.31C13.9 13.28 13.87 13.25 13.84 13.21C13.75 13.09 13.69 12.94 13.65 12.75C13.63 12.62 13.5 12.42 13.43 12.32C13.35 12.25 13.28 12.2 13.19 12.17C13.13 12.15 13.08 12.15 13.01 12.15C12.97 12.15 12.93 12.15 12.89 12.16C12.85 12.17 12.82 12.18 12.78 12.19C12.74 12.21 12.62 12.29 12.59 12.32C12.52 12.38 12.48 12.45 12.45 12.53C12.43 12.59 12.42 12.66 12.43 12.73C12.45 13 12.5 13.23 12.59 13.42C12.67 13.61 12.77 13.78 12.9 13.93C12.94 13.99 13.07 14.12 13.12 14.17C13.31 14.34 13.56 14.49 13.8 14.59C14.06 14.69 14.35 14.74 14.65 14.74C15.07 14.74 15.43 14.67 15.72 14.54C15.96 14.42 16.17 14.27 16.33 14.09C16.36 14.05 16.39 14.01 16.42 13.97C16.59 13.74 16.72 13.46 16.8 13.13C16.87 12.79 16.91 12.43 16.91 12.04C16.91 11.69 16.9 11.39 16.86 11.12C16.83 10.86 16.76 10.62 16.67 10.42C16.65 10.38 16.62 10.34 16.6 10.3C16.51 10.15 16.39 10.02 16.25 9.91C16.07 9.76 15.83 9.62 15.54 9.51L14.5 9.1C14.32 9.03 14.17 8.95 14.06 8.88C13.96 8.81 13.86 8.69 13.8 8.59C13.75 8.49 13.71 8.36 13.7 8.23C13.68 8.1 13.67 7.95 13.67 7.76C13.67 7.59 13.69 7.43 13.72 7.28C13.75 7.12 13.8 6.98 13.88 6.86C13.9 6.81 13.93 6.77 13.97 6.74C14.03 6.67 14.1 6.61 14.18 6.56C14.31 6.48 14.48 6.44 14.68 6.44ZM4.65 6.47L4.65 14.08C4.65 14.17 4.66 14.24 4.69 14.31C4.72 14.38 4.76 14.45 4.82 14.51C4.88 14.57 4.95 14.61 5.02 14.64C5.09 14.67 5.16 14.68 5.25 14.68C5.33 14.68 5.4 14.67 5.47 14.64C5.54 14.61 5.61 14.57 5.67 14.51C5.73 14.45 5.77 14.38 5.8 14.31C5.83 14.24 5.84 14.17 5.84 14.08L5.84 6.47L6.86 6.47C6.94 6.47 7 6.46 7.07 6.43C7.14 6.4 7.2 6.36 7.25 6.31C7.31 6.25 7.35 6.19 7.37 6.13C7.4 6.06 7.41 5.99 7.41 5.91C7.41 5.84 7.4 5.76 7.37 5.7C7.35 5.63 7.31 5.57 7.25 5.52C7.2 5.46 7.14 5.42 7.07 5.4C7 5.37 6.94 5.36 6.86 5.36L3.63 5.36C3.56 5.36 3.49 5.37 3.42 5.4C3.35 5.42 3.29 5.46 3.24 5.52C3.19 5.57 3.14 5.63 3.12 5.7C3.09 5.76 3.08 5.84 3.08 5.91C3.08 5.99 3.09 6.06 3.12 6.13C3.14 6.19 3.19 6.25 3.24 6.31C3.29 6.36 3.35 6.4 3.42 6.43C3.49 6.46 3.56 6.47 3.63 6.47L4.65 6.47ZM9.45 6.48L9.45 14.1C9.45 14.18 9.47 14.26 9.5 14.33C9.53 14.4 9.57 14.46 9.63 14.52C9.69 14.58 9.75 14.62 9.82 14.65C9.89 14.68 9.97 14.7 10.05 14.7C10.13 14.7 10.21 14.68 10.28 14.65C10.35 14.62 10.41 14.58 10.47 14.52C10.53 14.46 10.58 14.4 10.6 14.33C10.63 14.26 10.65 14.18 10.65 14.1L10.65 6.48L11.66 6.48C11.74 6.48 11.81 6.47 11.88 6.44C11.94 6.42 12 6.37 12.06 6.32C12.11 6.27 12.15 6.21 12.18 6.14C12.21 6.08 12.22 6 12.22 5.93C12.22 5.85 12.21 5.78 12.18 5.71C12.15 5.65 12.11 5.59 12.06 5.53C12 5.48 11.94 5.44 11.88 5.41C11.81 5.38 11.74 5.37 11.66 5.37L8.44 5.37C8.36 5.37 8.29 5.38 8.22 5.41C8.16 5.44 8.1 5.48 8.04 5.53C7.99 5.59 7.95 5.65 7.92 5.71C7.9 5.78 7.88 5.85 7.88 5.93C7.88 6 7.9 6.08 7.92 6.14C7.95 6.21 7.99 6.27 8.04 6.32C8.1 6.37 8.16 6.42 8.22 6.44C8.29 6.47 8.36 6.48 8.44 6.48L9.45 6.48Z" fill="#FFFFFF" fill-opacity="1.000000" fill-rule="evenodd"/>
	</g>
</svg>
