<svg width="20.000000" height="20.000000" viewBox="0 0 20 20" fill="none" xmlns="http://www.w3.org/2000/svg" xmlns:xlink="http://www.w3.org/1999/xlink">
	<desc>
			Created with Pixso.
	</desc>
	<defs>
		<clipPath id="clip90_22181">
			<rect id="24px/文件类型(树结构)/txt" width="20.000000" height="20.000000" fill="white" fill-opacity="0"/>
		</clipPath>
	</defs>
	<rect id="24px/文件类型(树结构)/txt" width="20.000000" height="20.000000" fill="#000000" fill-opacity="0"/>
	<g clip-path="url(#clip90_22181)">
		<path id="矢量 345" d="M6.99 1.66L13 1.66C14.86 1.66 15.79 1.66 16.51 2.03C17.14 2.34 17.65 2.85 17.96 3.48C18.33 4.19 18.33 5.13 18.33 7L18.33 13C18.33 14.86 18.33 15.8 17.96 16.51C17.65 17.14 17.14 17.65 16.51 17.96C15.79 18.33 14.86 18.33 13 18.33L6.99 18.33C5.13 18.33 4.19 18.33 3.48 17.96C2.85 17.65 2.34 17.14 2.02 16.51C1.66 15.8 1.66 14.86 1.66 13L1.66 7C1.66 5.13 1.66 4.19 2.02 3.48C2.34 2.85 2.85 2.34 3.48 2.03C4.19 1.66 5.13 1.66 6.99 1.66Z" fill="#000000" fill-opacity="0.400000" fill-rule="evenodd"/>
		<path id="合并" d="M4.375 5L15.625 5C15.9702 5 16.25 5.27979 16.25 5.625C16.25 5.97021 15.9702 6.25 15.625 6.25L4.375 6.25C4.02979 6.25 3.75 5.97021 3.75 5.625C3.75 5.27979 4.02979 5 4.375 5ZM9.79053 7.91699L4.37402 7.91699C4.02881 7.91699 3.74902 8.19678 3.74902 8.54199C3.74902 8.88721 4.02881 9.16699 4.37402 9.16699L9.79053 9.16699C10.1357 9.16699 10.4155 8.88721 10.4155 8.54199C10.4155 8.19678 10.1357 7.91699 9.79053 7.91699ZM4.37402 10.833L14.7905 10.833C15.1357 10.833 15.4155 11.1128 15.4155 11.458C15.4155 11.8032 15.1357 12.083 14.7905 12.083L4.37402 12.083C4.02881 12.083 3.74902 11.8032 3.74902 11.458C3.74902 11.1128 4.02881 10.833 4.37402 10.833ZM9.79053 13.75L4.37402 13.75C4.02881 13.75 3.74902 14.0298 3.74902 14.375C3.74902 14.7202 4.02881 15 4.37402 15L9.79053 15C10.1357 15 10.4155 14.7202 10.4155 14.375C10.4155 14.0298 10.1357 13.75 9.79053 13.75Z" clip-rule="evenodd" fill="#FFFFFF" fill-opacity="1.000000" fill-rule="evenodd"/>
	</g>
</svg>
