<svg width="20.000000" height="20.000000" viewBox="0 0 20 20" fill="none" xmlns="http://www.w3.org/2000/svg" xmlns:xlink="http://www.w3.org/1999/xlink">
	<desc>
			Created with Pixso.
	</desc>
	<defs>
		<clipPath id="clip7051_154869">
			<rect id="24px/文件类型(树结构)/ts" width="20.000000" height="20.000000" fill="white" fill-opacity="0"/>
		</clipPath>
	</defs>
	<g clip-path="url(#clip7051_154869)">
		<path id="矢量 340" d="M6.99 1.66L13 1.66C14.86 1.66 15.8 1.66 16.51 2.02C17.14 2.34 17.65 2.85 17.96 3.48C18.33 4.19 18.33 5.13 18.33 7L18.33 13C18.33 14.86 18.33 15.8 17.96 16.51C17.65 17.14 17.14 17.65 16.51 17.96C15.8 18.33 14.86 18.33 13 18.33L6.99 18.33C5.13 18.33 4.19 18.33 3.48 17.96C2.85 17.65 2.34 17.14 2.02 16.51C1.66 15.8 1.66 14.86 1.66 13L1.66 7C1.66 5.13 1.66 4.19 2.02 3.48C2.34 2.85 2.85 2.34 3.48 2.02C4.19 1.66 5.13 1.66 6.99 1.66Z" fill="#3992F1" fill-opacity="1.000000" fill-rule="evenodd"/>
		<path id="矢量 250" d="M14.38 7.59C14.44 7.61 14.53 7.62 14.6 7.62C14.69 7.62 14.77 7.61 14.84 7.58C14.92 7.55 14.99 7.5 15.05 7.44C15.11 7.37 15.16 7.3 15.19 7.23C15.22 7.15 15.24 7.07 15.24 6.98C15.24 6.76 15.21 6.55 15.15 6.35C15.05 6.01 14.83 5.66 14.55 5.37C14.34 5.17 14.09 5 13.8 4.87C13.5 4.74 13.16 4.67 12.8 4.67C12.36 4.67 11.99 4.74 11.68 4.89C11.41 5.02 11.19 5.18 11 5.38C10.97 5.42 10.94 5.45 10.91 5.49C10.7 5.74 10.54 6.03 10.43 6.38C10.33 6.73 10.27 7.1 10.27 7.49C10.27 8.14 10.38 8.68 10.6 9.12C10.81 9.54 11.24 9.88 11.88 10.14L12.97 10.59C13.17 10.67 13.32 10.75 13.44 10.82C13.52 10.87 13.59 10.92 13.64 10.98C13.69 11.02 13.73 11.08 13.76 11.13C13.82 11.25 13.87 11.41 13.89 11.6C13.91 11.79 13.92 12.02 13.92 12.31C13.92 12.55 13.91 12.77 13.9 12.97C13.88 13.18 13.83 13.36 13.74 13.51C13.7 13.58 13.66 13.64 13.61 13.69C13.54 13.76 13.46 13.82 13.36 13.87C13.2 13.96 12.98 14 12.7 14C12.35 14 12.08 13.91 11.89 13.74C11.85 13.7 11.82 13.66 11.79 13.62C11.69 13.48 11.61 13.31 11.57 13.1C11.54 12.95 11.48 12.82 11.4 12.7C11.37 12.67 11.35 12.65 11.32 12.62C11.24 12.54 11.15 12.49 11.06 12.46C11 12.43 10.93 12.42 10.86 12.42C10.81 12.42 10.77 12.43 10.73 12.44C10.68 12.45 10.64 12.46 10.6 12.48C10.55 12.5 10.43 12.59 10.39 12.62C10.35 12.66 10.28 12.77 10.25 12.82C10.24 12.86 10.23 12.9 10.22 12.93C10.22 12.98 10.21 13.03 10.22 13.08C10.24 13.38 10.3 13.64 10.39 13.85C10.49 14.06 10.6 14.25 10.74 14.42C10.8 14.49 10.93 14.62 10.99 14.69C11.2 14.87 11.48 15.04 11.75 15.15C12.05 15.27 12.36 15.32 12.7 15.32C13.18 15.32 13.58 15.25 13.9 15.09C14.18 14.97 14.4 14.8 14.59 14.59C14.62 14.55 14.66 14.51 14.69 14.46C14.88 14.2 15.02 13.89 15.11 13.52C15.2 13.14 15.24 12.73 15.24 12.29C15.24 11.91 15.22 11.56 15.18 11.26C15.14 10.97 15.07 10.71 14.97 10.48C14.94 10.43 14.92 10.39 14.89 10.34C14.78 10.18 14.65 10.03 14.5 9.9C14.3 9.73 14.03 9.59 13.7 9.46L12.53 9C12.33 8.91 12.16 8.83 12.04 8.75C11.92 8.67 11.81 8.53 11.74 8.42C11.68 8.3 11.64 8.16 11.62 8.01C11.6 7.87 11.6 7.69 11.6 7.48C11.6 7.29 11.61 7.11 11.64 6.94C11.68 6.76 11.74 6.6 11.82 6.46C11.85 6.41 11.89 6.37 11.93 6.32C12 6.25 12.08 6.18 12.17 6.13C12.32 6.04 12.51 5.99 12.74 5.99C13.05 5.99 13.3 6.07 13.48 6.22C13.54 6.28 13.6 6.34 13.65 6.42C13.75 6.57 13.82 6.74 13.86 6.95C13.89 7.09 13.95 7.22 14.03 7.33C14.06 7.37 14.08 7.4 14.11 7.43C14.2 7.51 14.28 7.56 14.38 7.59ZM6.52 5.99L6.52 14.57C6.52 14.66 6.54 14.75 6.57 14.82C6.61 14.9 6.65 14.97 6.72 15.04C6.78 15.1 6.85 15.15 6.93 15.18C7.01 15.21 7.09 15.23 7.19 15.23C7.28 15.23 7.36 15.21 7.44 15.18C7.52 15.15 7.59 15.1 7.65 15.04C7.72 14.97 7.77 14.9 7.8 14.82C7.83 14.75 7.85 14.66 7.85 14.57L7.85 5.99L9 5.99C9.09 5.99 9.16 5.98 9.24 5.95C9.31 5.92 9.38 5.87 9.44 5.81C9.5 5.75 9.54 5.68 9.57 5.61C9.6 5.54 9.62 5.46 9.62 5.38C9.62 5.29 9.6 5.21 9.57 5.14C9.54 5.07 9.5 5 9.44 4.94C9.38 4.88 9.31 4.83 9.24 4.81C9.16 4.77 9.09 4.76 9 4.76L5.37 4.76C5.29 4.76 5.21 4.77 5.13 4.81C5.06 4.83 5 4.88 4.94 4.94C4.88 5 4.83 5.07 4.8 5.14C4.77 5.21 4.76 5.29 4.76 5.38C4.76 5.46 4.77 5.54 4.8 5.61C4.83 5.68 4.88 5.75 4.94 5.81C5 5.87 5.06 5.92 5.13 5.95C5.21 5.98 5.29 5.99 5.37 5.99L6.52 5.99Z" fill="#FFFFFF" fill-opacity="1.000000" fill-rule="evenodd"/>
	</g>
</svg>
