<svg width="20.000000" height="20.000000" viewBox="0 0 20 20" fill="none" xmlns="http://www.w3.org/2000/svg" xmlns:xlink="http://www.w3.org/1999/xlink">
	<desc>
			Created with Pixso.
	</desc>
	<defs>
		<clipPath id="clip90_22171">
			<rect id="24px/文件类型(树结构)/yaml" width="20.000000" height="20.000000" fill="white" fill-opacity="0"/>
		</clipPath>
	</defs>
	<g clip-path="url(#clip90_22171)">
		<path id="矢量 336" d="M7 1.66L12.99 1.66C14.86 1.66 15.79 1.66 16.51 2.03C17.14 2.34 17.65 2.85 17.97 3.48C18.33 4.19 18.33 5.13 18.33 7L18.33 13C18.33 14.86 18.33 15.8 17.97 16.51C17.65 17.14 17.14 17.65 16.51 17.96C15.79 18.33 14.86 18.33 12.99 18.33L7 18.33C5.13 18.33 4.19 18.33 3.48 17.96C2.85 17.65 2.34 17.14 2.02 16.51C1.66 15.8 1.66 14.86 1.66 13L1.66 7C1.66 5.13 1.66 4.19 2.02 3.48C2.34 2.85 2.85 2.34 3.48 2.03C4.19 1.66 5.13 1.66 7 1.66Z" fill="#000000" fill-opacity="0.400000" fill-rule="evenodd"/>
		<path id="合并" d="M5.11719 4.19409L6.4834 6.34814L7.84912 4.19409C7.94238 4.04736 8.104 3.9585 8.27734 3.9585C8.6792 3.9585 8.92139 4.40332 8.70361 4.74072L7.00391 7.37183L7.00391 9.06274C7.00391 9.35034 6.771 9.5835 6.4834 9.5835C6.1958 9.5835 5.9624 9.35034 5.9624 9.06274L5.9624 7.37183L4.26318 4.74072C4.04541 4.40332 4.2876 3.9585 4.68896 3.9585C4.86279 3.9585 5.02441 4.04736 5.11719 4.19409ZM5.95264 15.5208L5.95264 11.3618C5.95264 10.8398 6.37598 10.4165 6.89795 10.4165C7.24121 10.4165 7.55762 10.6025 7.72412 10.9026L8.97363 13.1504L10.2227 10.9026C10.3896 10.6025 10.7056 10.4165 11.0488 10.4165C11.5713 10.4165 11.9941 10.8398 11.9941 11.3618L11.9941 15.5208C11.9941 15.8083 11.7612 16.0415 11.4736 16.0415C11.186 16.0415 10.9526 15.8083 10.9526 15.5208L10.9526 12.0271L9.78857 14.2896C9.62988 14.5979 9.3125 14.7915 8.96582 14.7915C8.62646 14.7915 8.31445 14.6057 8.15283 14.3076L6.99414 12.1738L6.99414 15.5208C6.99414 15.8083 6.76123 16.0415 6.47363 16.0415C6.18604 16.0415 5.95264 15.8083 5.95264 15.5208ZM14.0459 16.0415L16.4834 16.0415C16.7715 16.0415 17.0044 15.8083 17.0044 15.5208C17.0044 15.2329 16.7715 14.9998 16.4834 14.9998L14.0879 14.9998L14.0879 10.9373C14.0879 10.6497 13.8545 10.4165 13.5669 10.4165C13.2793 10.4165 13.0459 10.6497 13.0459 10.9373L13.0459 15.0415C13.0459 15.5938 13.4937 16.0415 14.0459 16.0415Z" clip-rule="evenodd" fill="#FFFFFF" fill-opacity="1.000000" fill-rule="evenodd"/>
		<path id="合并" d="M8.30127 8.97144L10.2729 4.46631C10.4082 4.15771 10.7129 3.9585 11.0493 3.9585C11.3887 3.9585 11.6953 4.16064 11.8286 4.47217L13.7183 8.88184C13.8608 9.21387 13.6172 9.5835 13.2554 9.5835C13.0488 9.5835 12.8633 9.45703 12.7871 9.26489L12.2368 7.86987L9.74121 7.86987L9.10107 9.32275C9.03125 9.4812 8.87451 9.5835 8.70166 9.5835C8.38623 9.5835 8.1748 9.26001 8.30127 8.97144ZM10.1084 7.03638L11.9077 7.03638L11.0576 4.88208L10.1084 7.03638Z" clip-rule="evenodd" fill="#E64566" fill-opacity="1.000000" fill-rule="evenodd"/>
	</g>
</svg>
