<svg width="20.000000" height="20.000000" viewBox="0 0 20 20" fill="none" xmlns="http://www.w3.org/2000/svg" xmlns:xlink="http://www.w3.org/1999/xlink">
	<desc>
			Created with Pixso.
	</desc>
	<defs>
		<clipPath id="clip7051_154849">
			<rect id="24px/文件类型(树结构)/zip" width="20.000000" height="20.000000" fill="white" fill-opacity="0"/>
		</clipPath>
	</defs>
	<g clip-path="url(#clip7051_154849)">
		<path id="合并" d="M6.29541 2.5L4.17065 2.5C2.32971 2.5 0.837341 3.99219 0.837341 5.8335L0.83728 14.1665C0.83728 16.0078 2.32965 17.5 4.17059 17.5L15.8373 17.5C17.6782 17.5 19.1706 16.0078 19.1706 14.1665L19.1706 8.45068C19.1706 6.60986 17.6783 5.11719 15.8373 5.11719L11.0877 5.11719C10.746 5.11719 10.4126 5.01221 10.1326 4.81641L7.25055 2.80078C6.97052 2.60498 6.63708 2.5 6.29541 2.5ZM3.6864 3.80615C3.84338 3.76855 4.00482 3.75 4.17065 3.75L6.29541 3.75C6.33917 3.75 6.38092 3.75635 6.42072 3.76904C6.46051 3.78125 6.49835 3.80029 6.53418 3.8252L9.41626 5.84082C9.53882 5.92627 9.66638 6.00195 9.79901 6.06738C9.93152 6.13232 10.069 6.1875 10.2115 6.23242C10.3544 6.27734 10.4991 6.31104 10.6455 6.3335L10.6456 6.3335C10.7912 6.35596 10.9386 6.36719 11.0877 6.36719L12.5 6.36719L12.5 7.40137L12.0873 7.40137C11.7421 7.40137 11.4623 7.68115 11.4623 8.02637C11.4623 8.37109 11.7421 8.65137 12.0873 8.65137L12.5 8.65137L12.5 9.48438L12.0873 9.48438C11.7421 9.48438 11.4623 9.76416 11.4623 10.1094C11.4623 10.4546 11.7421 10.7344 12.0873 10.7344L12.5 10.7344L12.5 11.834C12.1264 12.0503 11.875 12.4541 11.875 12.917C11.875 13.6069 12.4347 14.167 13.125 14.167C13.8154 14.167 14.375 13.6069 14.375 12.917C14.375 12.4541 14.1237 12.0503 13.75 11.834L13.75 10.7344L14.1706 10.7344C14.5157 10.7344 14.7956 10.4546 14.7956 10.1094C14.7956 9.76416 14.5157 9.48438 14.1706 9.48438L13.75 9.48438L13.75 8.65137L14.1706 8.65137C14.5157 8.65137 14.7956 8.37109 14.7956 8.02637C14.7956 7.68115 14.5157 7.40137 14.1706 7.40137L13.75 7.40137L13.75 6.36719L15.8373 6.36719C16.0032 6.36719 16.1647 6.38623 16.3217 6.42334C16.4326 6.44971 16.5413 6.48535 16.6478 6.53076C16.7601 6.57812 16.8665 6.63428 16.9673 6.69971C17.0901 6.77881 17.2045 6.87158 17.3104 6.97754C17.4162 7.0835 17.5089 7.19775 17.5883 7.32031C17.6536 7.42139 17.7099 7.52783 17.7574 7.64014C17.8024 7.74658 17.8382 7.85547 17.8646 7.96631C17.9019 8.12354 17.9206 8.28467 17.9206 8.45068L17.9206 14.1665C17.9206 14.3325 17.9019 14.4941 17.8646 14.6509C17.8381 14.7617 17.8024 14.8706 17.7574 14.9771C17.7099 15.0894 17.6536 15.1958 17.5884 15.2969C17.5089 15.4194 17.4163 15.5342 17.3104 15.6396C17.2046 15.7456 17.0902 15.8384 16.9673 15.918C16.8666 15.9829 16.7601 16.0396 16.6478 16.0869C16.5413 16.1318 16.4324 16.1675 16.3215 16.1938C16.1645 16.2314 16.0031 16.25 15.8373 16.25L4.17059 16.25C4.0047 16.25 3.84326 16.2314 3.68628 16.1938C3.57532 16.1675 3.46655 16.1318 3.36005 16.0869C3.24805 16.0396 3.14172 15.9834 3.04114 15.918L3.04108 15.918L3.04053 15.918C2.91766 15.8384 2.80328 15.7456 2.69745 15.6396C2.59167 15.5342 2.49902 15.4194 2.41956 15.2969L2.41943 15.2964L2.41943 15.2964C2.35425 15.1958 2.29791 15.0894 2.25049 14.9771C2.20538 14.8706 2.16968 14.7617 2.14325 14.6509C2.10596 14.4937 2.08728 14.3325 2.08728 14.1665L2.08734 5.8335C2.08734 5.66748 2.10602 5.50586 2.14337 5.34912C2.16974 5.23828 2.20551 5.12939 2.25055 5.02295C2.29803 4.91064 2.35437 4.8042 2.41956 4.70312C2.49908 4.58057 2.59174 4.46582 2.69751 4.36035C2.80334 4.25439 2.91766 4.16162 3.04053 4.08203C3.1413 4.01709 3.24786 3.96045 3.36011 3.91309C3.46667 3.86816 3.57544 3.83252 3.6864 3.80615Z" clip-rule="evenodd" fill="#ffffff" fill-opacity="0.900000" fill-rule="evenodd"/>
	</g>
</svg>
